<?xml version='1.0' encoding='utf-8'?>
<svg xmlns="http://www.w3.org/2000/svg" width="1920" height="1080" viewBox="0 0 1920 1080" data-theme="dark">
  <style>
        @font-face {
            font-family: 'Inter';
            src: url('assets/fonts/Inter-Regular.ttf') format('truetype');
            font-weight: 400;
            font-style: normal;
            font-display: swap;
        }
        @font-face {
            font-family: 'Inter';
            src: url('assets/fonts/Inter-Bold.ttf') format('truetype');
            font-weight: 600;
            font-style: normal;
            font-display: swap;
        }
        @font-face {
            font-family: 'Inter';
            src: url('assets/fonts/Inter-Bold.ttf') format('truetype');
            font-weight: 800;
            font-style: normal;
            font-display: swap;
        }
        
:root {
    --background: #0f172a;
    --panel: #1e293b;
    --primary-text: #f1f5f9;
    --muted-text: #94a3b8;
    --inverse-text: #0f172a;
    --border: #334155;
    --shadow-color: #000000;
    --icon-pad-bg: #1e293b;
    --art-glow: #7dd3fc;
    --art-glow-opacity: 0.18;
    --art-sheen: #ffffff;
    --art-sheen-opacity: 0.18;
    --art-shadow: #000000;
    --art-shadow-opacity: 0.28;
    --art-muted-line: #64748b;
    --art-panel-tint: #1e293b;
    --font-family: 'Inter', 'Segoe UI', 'Kalam', Roboto, Helvetica, Arial, sans-serif;
    --radius-xl: 16px;
    --font-family-headline: 'Inter', 'Segoe UI', 'Kalam', Roboto, Helvetica, Arial, sans-serif;
    --font-family-body: 'Inter', 'Segoe UI', 'Kalam', Roboto, Helvetica, Arial, sans-serif;
    --font-heading: 'Inter', 'Segoe UI', 'Kalam', Roboto, Helvetica, Arial, sans-serif;
    --font-body: 'Inter', 'Segoe UI', 'Kalam', Roboto, Helvetica, Arial, sans-serif;
    --font-size-h1: 56px;
    --font-size-h2: 40px;
    --font-size-h3: 28px;
    --font-size-body: 24px;
    --font-size-caption: 18px;
    --secondary-text: var(--muted-text);
    --panel-border: var(--border);
    --font-weight-normal: 400;
    --font-weight-medium: 500;
    --font-weight-semibold: 600;
    --font-weight-bold: 700;
    --spacing-gutter-pct: 0.07;
    --spacing-top-pct: 0.15;
    --spacing-bottom-pct: 0.07;
    --spacing-title-y-pct: 0.055;
    --accent-1: #93c5fd;
    --accent-2: #86efac;
    --accent-3: #fcd34d;
    --accent-4: #f9a8d4;
    --accent-5: #c4b5fd;
    --accent-6: #a5f3fc;
}
:root[data-theme="dark"] {
    --background: #0f172a;
    --panel: #1e293b;
    --primary-text: #f1f5f9;
    --muted-text: #94a3b8;
    --inverse-text: #0f172a;
    --border: #334155;
    --shadow-color: #000000;
    --icon-pad-bg: #1e293b;
    --art-glow: #7dd3fc;
    --art-glow-opacity: 0.18;
    --art-sheen: #ffffff;
    --art-sheen-opacity: 0.18;
    --art-shadow: #000000;
    --art-shadow-opacity: 0.28;
    --art-muted-line: #64748b;
    --art-panel-tint: #1e293b;
    --accent-1: #93c5fd;
    --accent-2: #86efac;
    --accent-3: #fcd34d;
    --accent-4: #f9a8d4;
    --accent-5: #c4b5fd;
    --accent-6: #a5f3fc;
}
:root[data-theme="light"] {
    --background: #f8fafc;
    --panel: #ffffff;
    --primary-text: #0f172a;
    --muted-text: #64748b;
    --inverse-text: #ffffff;
    --border: #e2e8f0;
    --shadow-color: #000000;
    --icon-pad-bg: #1e293b;
    --art-glow: #0891b2;
    --art-glow-opacity: 0.10;
    --art-sheen: #ffffff;
    --art-sheen-opacity: 0.34;
    --art-shadow: #0f172a;
    --art-shadow-opacity: 0.14;
    --art-muted-line: #94a3b8;
    --art-panel-tint: #f1f5f9;
    --accent-1: #3b82f6;
    --accent-2: #22c55e;
    --accent-3: #f59e0b;
    --accent-4: #ec4899;
    --accent-5: #8b5cf6;
    --accent-6: #06b6d4;
}</style>
  <rect x="0" y="0" width="1.92E+3" height="1.08E+3" fill="#252a34" stroke="none" id="programmatic_background"/>
  <line id="HEADER_DECOR" x1="960.0" x2="1080.0" y1="123.0" y2="123.0" stroke="var(--accent-1)" stroke-width="6" stroke-linecap="round"/>
  <defs>
    <pattern id="svg4809b754-napkin-hatch" patternUnits="userSpaceOnUse" width="12" height="12">
      <path d="M -3 12 L 12 -3 M 0 15 L 15 0" fill="none" stroke="var(--primary-text)" stroke-width="1" stroke-opacity="0.05"/>
    </pattern>
    <filter id="svg4809b754-shadow" x="-30%" y="-30%" width="160%" height="160%">
      <feDropShadow dx="0" dy="3" stdDeviation="6" flood-color="#000000" flood-opacity="0.10"/>
      <feDropShadow dx="0" dy="8" stdDeviation="12" flood-color="#000000" flood-opacity="0.16"/>
    </filter>
    <radialGradient id="svg4809b754-universal-edge-vignette" cx="50%" cy="50%" r="72%">
      <stop offset="0%" stop-color="var(--background)" stop-opacity="0"/>
      <stop offset="72%" stop-color="var(--background)" stop-opacity="0.12"/>
      <stop offset="100%" stop-color="var(--primary-text)" stop-opacity="0.08"/>
    </radialGradient>
    <linearGradient id="svg4809b754-universal-surface-sheen" x1="0%" y1="0%" x2="100%" y2="100%">
      <stop offset="0%" stop-color="var(--art-sheen)" stop-opacity="var(--art-sheen-opacity)"/>
      <stop offset="46%" stop-color="var(--art-sheen)" stop-opacity="0.035"/>
      <stop offset="100%" stop-color="var(--art-panel-tint)" stop-opacity="0.14"/>
    </linearGradient>
    <radialGradient id="svg4809b754-universal-icon-aura" cx="50%" cy="42%" r="64%">
      <stop offset="0%" stop-color="var(--art-glow)" stop-opacity="var(--art-glow-opacity)"/>
      <stop offset="100%" stop-color="var(--background)" stop-opacity="0"/>
    </radialGradient>
    <filter id="svg4809b754-text-glow" x="-20%" y="-20%" width="140%" height="140%">
      <feDropShadow dx="0" dy="0" stdDeviation="2" flood-color="#000000" flood-opacity="0.4"/>
    </filter>
    <marker id="svg4809b754-arrowhead" markerWidth="10" markerHeight="7" refX="9" refY="3.5" orient="auto" markerUnits="strokeWidth">
      <polygon points="0 0, 10 3.5, 0 7" fill="var(--muted-text)" opacity="0.6"/>
    </marker>
  </defs>
  <rect width="100%" height="100%" fill="var(--background)" id="CANVAS_BG"/>
  <rect width="100%" height="100%" fill="url(#svg4809b754-napkin-hatch)"/>
  <rect id="UNIVERSAL_EDGE_VIGNETTE" width="100%" height="100%" fill="url(#svg4809b754-universal-edge-vignette)" opacity="0.62"/>
  <text id="TITLE" x="960.0" y="59" text-anchor="middle" font-size="58" font-weight="800" fill="#f1f5f9" style="font-size: 60px; font-family: Inter, Segoe UI, Kalam, Roboto, Helvetica, Arial, sans-serif; font-weight: 700; letter-spacing:-1.2px;" data-final-font-size="60">
    <tspan x="960.0" dy="68.00px">Oregon UFO Time line</tspan>
  </text>
  <rect id="TITLE_FRAME" x="134" y="57" width="1652" height="98" fill="none"/>
  <rect x="140" y="150" width="1640" height="850" rx="40" fill="var(--panel)" fill-opacity="0.24" stroke="var(--muted-text)" stroke-width="2.4" opacity="0.96"/>
  <line x1="960" y1="220" x2="960" y2="940" stroke="var(--muted-text)" stroke-width="14" stroke-linecap="round" opacity="0.18"/>
  <line x1="960" y1="220" x2="960" y2="940" stroke="var(--border)" stroke-width="4" stroke-linecap="round" opacity="0.88"/>
  <g id="DIAGRAM_MAIN">
    <g filter="url(#svg4809b754-shadow)">
      <line x1="934" y1="255.0" x2="604.0" y2="255.0" stroke="var(--accent-1)" stroke-width="3.5" opacity="0.84"/>
      <circle cx="960" cy="255.0" r="20" fill="var(--background)" stroke="var(--accent-1)" stroke-width="3.2"/>
      <text x="960" y="261.0" text-anchor="middle" font-size="14" font-weight="800" fill="var(--primary-text)">1</text>
      <rect id="ITEM_1_BG" x="170" y="177.0" width="470" height="156" rx="22" fill="var(--panel)" fill-opacity="0.97" stroke="var(--accent-1)" stroke-width="3.2"/>
      <rect x="170" y="177.0" width="470" height="16" rx="8" fill="var(--accent-1)" fill-opacity="0.55"/>
      <circle id="ITEM_1_PAD" cx="568.0" cy="255.0" r="40" fill="var(--icon-pad-bg)" opacity="0.95" fill-opacity="0.9" stroke-width="2" stroke="var(--primary-text)"/>
      <circle id="ITEM_1_PAD_INNER" cx="568.0" cy="255.0" r="31.20" fill="var(--accent-5)" fill-opacity="0.22"/>
      <circle cx="568.0" cy="255.0" r="32" fill="none" stroke="var(--accent-1)" stroke-width="3" stroke-dasharray="6 4"/>
      <g id="ITEM_1_ICON" transform="translate(538.0, 225.0)" data-icon-size="60" stroke-dasharray="6 4">
        <g transform="translate(-2.990163934426236,-2.7344262295082036) scale(0.5114754098360657)">
          <path fill="#FFF" d="M106.13 42.46c-.07 1.32.89 2.47 2.24 2.43c1.2-.04 1.99-1.41 1.95-2.3s-1.08-1.97-2.14-2.03c-1.05-.08-2 1.1-2.05 1.9m-70.96-38c-.84.93-.57 2.31.21 2.82s1.95.46 2.52-.24c.51-.63.57-1.89-.21-2.67c-.67-.68-1.98-.51-2.52.09" opacity=".5"/>
          <path fill="#FFF" d="M113.6 95.23s1.15-3.3 1.84-3.34s1.69 3.3 1.69 3.3s3.42.04 3.65.54c.3.64-2.19 2.8-2.19 2.8s.81 3.23.42 3.61c-.42.42-3.38-1.27-3.38-1.27s-3.03 2.11-3.69 1.54c-.57-.5.61-3.92.61-3.92s-2.84-2.07-2.69-2.65c.23-.8 3.74-.61 3.74-.61m2.35-58.65c-.17 2 1.26 3.7 3.31 3.58c1.83-.11 3.28-1.65 3.07-3.56c-.23-2.06-1.57-2.93-3.18-2.99s-3.1 1.76-3.2 2.97M25.23 16.26c-.23 1.76.92 3.21 2.75 3.21c1.67 0 2.98-1.6 2.87-3.27c-.12-1.8-1.4-2.73-2.93-2.6c-1.42.12-2.56 1.6-2.69 2.66"/>
          <path fill="#FFF" d="M81.04 109.17c-.16 1.87 1.17 3.45 3.09 3.34c1.7-.1 3.06-1.54 2.86-3.32c-.21-1.93-1.46-2.74-2.96-2.79s-2.89 1.64-2.99 2.77" opacity=".5"/>
          <path fill="url(#SVGO3NbHdWj)" d="m36.85 74.12l-20.86 39.06l16.42 13.76h28.41l9.76-42.17z"/>
          <path fill="#848484" d="M19.36 66.25C18.27 65 12.64 55.62 9.83 48.59S4.21 31.87 4.21 31.87l45.16 5l74.07 41.56s-7.5 4.53-17.5 9.06s-15 5.63-16.09 5.94s-15.03.8-38.28-8.28c-22.83-8.9-32.21-18.9-32.21-18.9"/>
          <path fill="#9A9A9A" d="m16.3 30.12l-9.79-.92s-1.29 0-2.03.83s-.28 1.85-.28 1.85s20 18.21 55.94 32.51c38.69 15.39 63.29 14.06 63.29 14.06s1.08-.54 1.08-1.63s-.87-1.83-.87-1.83L62.73 46.71z"/>
          <path fill="#B0B0B0" d="M72.02 30.05c-15.98-6.85-27.35-5.47-32.35-5.31S6.52 29.2 6.52 29.2s23.47 19.76 55.81 31.95s61.31 13.83 61.31 13.83s-12.56-15.86-20.21-23.83c-10.28-10.7-17.19-15.01-31.41-21.1"/>
          <path fill="#E3E3DF" d="M31.86 27.89c-1.43-.83-13.07 1.27-13.07 5.05c0 2.81 6.09 6.17 12.03 9.3c5.21 2.75 14.11 6.49 14.51 4.09c.47-2.81-9.38-5.45-12.43-10.58c-2.24-3.77.88-6.73-1.04-7.86"/>
          <path fill="#9A9A9A" d="M103.38 54.91c-1.89.09-2.08 3.37-6.82 4.81s-14.86-1.22-16.11.25c-2.41 2.81 24.94 12.19 30.39 7.86c4.05-3.22-5.7-13-7.46-12.92"/>
          <path fill="#4B7179" d="M44.81 23.22s-1.48 2.48-1.2 4.25c.46 2.95 6 8.77 23.63 15.42c18.26 6.88 27.79 5.26 28.99 3.6c.87-1.21.83-3.88.83-3.88L69.82 30.05z"/>
          <path fill="#64DAC1" d="M44.81 23.22s12.3-21.77 36.06-12.95c21.52 7.99 16.19 32.34 16.19 32.34s-28.32-6.52-29.87-7.46c-1.56-.93-22.38-11.93-22.38-11.93"/>
          <path fill="#53B4A0" d="M68.72 38.73c-22.39-8.74-23.91-15.51-23.91-15.51s8.76-1.64 27.79 5.45C92.9 36.24 97.06 42.6 97.06 42.6s-9.42 3.51-28.34-3.87"/>
          <path fill="#53B4A0" d="M70.84 29.03s1.44-3.29 1.11-4.8c-.55-2.49-2.14-4.91-1.11-7.29c1.48-3.42 4.57-4.3 8.59-2.77c3.88 1.48 4.7 5.17 3.6 7.57c-1.48 3.23-3.78 2.77-5.45 4.25c-1.42 1.26-2.49 4.71-2.49 4.71z"/>
          <path fill="#9CFCEC" d="M51.23 27.74c2.41.97 4.2-3.92 8.89-8.44c5.57-5.37 13.66-7.13 13.11-8.7c-.63-1.86-10.74-.97-17.33 4.72c-6.23 5.39-7.35 11.33-4.67 12.42m36.53 12.21c-.13 1.92 3.65 2.62 5.69 1.02c2.73-2.13 2.5-7.02.45-7.23c-1.92-.19-1.66 2.43-2.94 3.58s-3.1 1.2-3.2 2.63"/>
          <ellipse cx="33.98" cy="66.89" fill="url(#SVG0ULPsbkS)" rx="9.78" ry="9.99"/>
          <ellipse cx="54.9" cy="77.63" fill="url(#SVGPuX3Pcww)" rx="11.02" ry="10.6"/>
          <ellipse cx="75.74" cy="84.05" fill="url(#SVGAAT19yaX)" rx="9.26" ry="9.2"/>
          <path fill="url(#SVG4SXfnfoJ)" d="M104.76 82.53c1.35 4.63-1.45 9.52-6.27 10.93s-9.82-1.2-11.17-5.83s1.45-9.52 6.27-10.93c4.81-1.41 9.81 1.2 11.17 5.83"/>
          <ellipse cx="20.3" cy="54.06" fill="none" stroke="url(#SVGxTkt4dzL)" stroke-miterlimit="10" rx="9.78" ry="9.99"/>
          <path fill="#53B4A0" d="M31.43 64.13c-1.76 1.86-1.72 4.82.47 6.44c2.12 1.57 4.48.63 5.57-.71s1.26-4.24-.47-5.73c-1.72-1.49-4.24-1.41-5.57 0"/>
          <path fill="#9CFCEC" d="M32.76 65.94c-.74.8-.83 2 .16 2.91c.94.86 2.43.55 2.98-.24c.67-.96.47-2.36-.39-2.91s-1.88-.71-2.75.24"/>
          <path fill="#53B4A0" d="M50.2 76.69c-.94 2.28.63 4.79 3.53 5.5c2.54.62 4.87-.63 5.42-2.91c.51-2.13-.59-4.61-3.3-5.26c-2.28-.55-4.61.15-5.65 2.67"/>
          <path fill="#9CFCEC" d="M53.18 76.58c-.74.79-.83 1.98.16 2.87c.94.85 2.43.54 2.98-.23c.67-.94.47-2.33-.39-2.87c-.87-.55-1.89-.7-2.75.23"/>
          <path fill="#53B4A0" d="M73.17 81.03c-1.82 1.6-1.82 4.46.06 6.3c1.64 1.6 4.02 1.49 5.54-.27c1.42-1.65 1.76-4.29.01-6c-1.48-1.44-3.59-1.8-5.61-.03"/>
          <path fill="#9CFCEC" d="M77.27 82.65c-.76-.78-1.92-.91-2.83.07c-.87.94-.61 2.49.13 3.08c.91.72 2.28.56 2.84-.32c.57-.86.75-1.91-.14-2.83"/>
          <path fill="#53B4A0" d="M97.34 80.83c-2.37-.42-4.65 1.28-4.96 3.8c-.27 2.2 1.27 3.93 3.59 4.02c2.17.09 4.47-1.22 4.76-3.56c.23-1.98-.76-3.8-3.39-4.26"/>
          <path fill="#9CFCEC" d="M94.49 84.65c-.03 1.1.69 2.04 2.04 2.02c1.3-.02 2.23-1.28 2.14-2.24c-.12-1.17-1.19-2.06-2.22-1.86s-1.92.79-1.96 2.08"/>
          <path fill="url(#SVG0FBToc8P)" d="M25.49 46.34c4.62 3.01 5.98 9.12 3.03 13.64s-9.08 5.75-13.7 2.74s-5.98-9.12-3.03-13.64s9.07-5.75 13.7-2.74"/>
          <path fill="#53B4A0" d="M18.79 50.62c-2.36.98-3.12 3.32-2.2 5.57c.86 2.12 3.06 3.06 5.18 2.36s3.53-3.14 2.36-5.65c-1.15-2.45-3.46-3.06-5.34-2.28"/>
          <path fill="#9CFCEC" d="M19.15 52.63c-.99.64-1.2 1.98-.49 3.04s2.19.99 2.97.35s.99-2.12.21-3.04s-1.89-.87-2.69-.35"/>
        </g>
      </g>
      <text id="ITEM_1_HEAD" x="346.0" y="195.0" text-anchor="middle" font-weight="800" font-size="24" fill="var(--accent-5)" data-bg-id="ITEM_1_BG" fill-opacity="1.0" stroke="none" style="font-size: 30px; font-family: Inter, Segoe UI, Kalam, Roboto, Helvetica, Arial, sans-serif; font-weight: 700; letter-spacing:-0.4px;" data-final-font-size="30">
        <tspan x="346.0" dy="29.33px">Start</tspan>
      </text>
      <rect id="ITEM_1_HEAD_FRAME" x="206.0" y="195.0" width="280" height="34" fill="none"/>
      <text id="ITEM_1_BODY" x="362.0" y="235.0" text-anchor="middle" font-size="18" fill="var(--primary-text)" data-bg-id="ITEM_1_BG" style="font-size: 26px; font-family: Inter, Segoe UI, Kalam, Roboto, Helvetica, Arial, sans-serif; font-weight: 400;" data-final-font-size="26">
        <tspan x="362.0" dy="26.20px">Kenneth Arnold coins term</tspan>
        <tspan x="362.0" dy="29.90px">flying saucer</tspan>
      </text>
      <rect id="ITEM_1_BODY_FRAME" x="202.0" y="235.0" width="320" height="70" fill="none"/>
    </g>
    <g filter="url(#svg4809b754-shadow)">
      <line x1="986" y1="417.5" x2="1316.0" y2="417.5" stroke="var(--accent-2)" stroke-width="3.5" opacity="0.84"/>
      <circle cx="960" cy="417.5" r="20" fill="var(--background)" stroke="var(--accent-2)" stroke-width="3.2"/>
      <text x="960" y="423.5" text-anchor="middle" font-size="14" font-weight="800" fill="var(--primary-text)">2</text>
      <rect id="ITEM_2_BG" x="1280" y="339.5" width="470" height="156" rx="22" fill="var(--panel)" fill-opacity="0.97" stroke="var(--accent-2)" stroke-width="3.2"/>
      <rect x="1280" y="339.5" width="470" height="16" rx="8" fill="var(--accent-2)" fill-opacity="0.55"/>
      <circle id="ITEM_2_PAD" cx="1352.0" cy="417.5" r="40" fill="var(--icon-pad-bg)" opacity="0.95" fill-opacity="0.9" stroke-width="2" stroke="var(--primary-text)"/>
      <circle id="ITEM_2_PAD_INNER" cx="1352.0" cy="417.5" r="31.20" fill="var(--accent-6)" fill-opacity="0.22"/>
      <circle cx="1352.0" cy="417.5" r="32" fill="none" stroke="var(--accent-2)" stroke-width="3" stroke-dasharray="6 4"/>
      <g id="ITEM_2_ICON" transform="translate(1322.0, 387.5)" data-icon-size="60" stroke-dasharray="6 4">
        <g transform="translate(-5.65714285714286,-15.685714285714287) scale(2.2285714285714286)">
          <path d="M5.5 11C5.22386 11 5 11.2239 5 11.5V13H9V11.5C9 11.2239 8.77614 11 8.5 11H5.5Z" fill="#D3D3D3"/>
          <path d="M21.5 11C21.2239 11 21 11.2239 21 11.5V13H27V11.5C27 11.2239 26.7761 11 26.5 11H21.5Z" fill="#D3D3D3"/>
          <path d="M2 14C2 12.8954 2.89543 12 4 12H28C29.1046 12 30 12.8954 30 14V16.5L28 22L30 27.5V28C30 29.1046 29.1046 30 28 30H4C2.89543 30 2 29.1046 2 28V27.5L3.5 22L2 16.5V14Z" fill="#E6E6E6"/>
          <path d="M2 16.5C2 16.2239 2.22386 16 2.5 16H29.5C29.7761 16 30 16.2239 30 16.5V27.5C30 27.7761 29.7761 28 29.5 28H2.5C2.22386 28 2 27.7761 2 27.5V16.5Z" fill="#533566"/>
          <path d="M22 22C22 25.3137 19.3137 28 16 28C12.6863 28 10 25.3137 10 22C10 18.6863 12.6863 16 16 16C19.3137 16 22 18.6863 22 22Z" fill="#321B41"/>
          <path d="M16 27C18.7614 27 21 24.7614 21 22C21 19.2386 18.7614 17 16 17C13.2386 17 11 19.2386 11 22C11 24.7614 13.2386 27 16 27ZM16 29C12.134 29 9 25.866 9 22C9 18.134 12.134 15 16 15C19.866 15 23 18.134 23 22C23 25.866 19.866 29 16 29Z" fill="#9B9B9B"/>
          <path d="M18.5 22C18.5 23.3807 17.3807 24.5 16 24.5C14.6193 24.5 13.5 23.3807 13.5 22C13.5 20.6193 14.6193 19.5 16 19.5C17.3807 19.5 18.5 20.6193 18.5 22Z" fill="#433B6B"/>
          <path d="M19.0825 19.875C19.4967 20.5924 19.4448 21.3979 18.9665 21.674C18.4882 21.9501 17.7647 21.5924 17.3505 20.875C16.9363 20.1575 16.9882 19.3521 17.4665 19.0759C17.9448 18.7998 18.6683 19.1575 19.0825 19.875Z" fill="white"/>
        </g>
      </g>
      <text id="ITEM_2_HEAD" x="1570.0" y="357.5" text-anchor="middle" font-weight="800" font-size="24" fill="var(--accent-6)" data-bg-id="ITEM_2_BG" fill-opacity="1.0" stroke="none" style="font-size: 30px; font-family: Inter, Segoe UI, Kalam, Roboto, Helvetica, Arial, sans-serif; font-weight: 700; letter-spacing:-0.4px;" data-final-font-size="30">
        <tspan x="1570.0" dy="29.33px">Photos</tspan>
      </text>
      <rect id="ITEM_2_HEAD_FRAME" x="1430.0" y="357.5" width="280" height="34" fill="none"/>
      <text id="ITEM_2_BODY" x="1580.0" y="397.5" text-anchor="middle" font-size="18" fill="var(--primary-text)" data-bg-id="ITEM_2_BG" style="font-size: 26px; font-family: Inter, Segoe UI, Kalam, Roboto, Helvetica, Arial, sans-serif; font-weight: 400;" data-final-font-size="26">
        <tspan x="1580.0" dy="26.20px">Trent negatives circulate</tspan>
        <tspan x="1580.0" dy="29.90px">nationally</tspan>
      </text>
      <rect id="ITEM_2_BODY_FRAME" x="1420.0" y="397.5" width="320" height="70" fill="none"/>
    </g>
    <g filter="url(#svg4809b754-shadow)">
      <line x1="934" y1="580.0" x2="604.0" y2="580.0" stroke="var(--accent-3)" stroke-width="3.5" opacity="0.84"/>
      <circle cx="960" cy="580.0" r="20" fill="var(--background)" stroke="var(--accent-3)" stroke-width="3.2"/>
      <text x="960" y="586.0" text-anchor="middle" font-size="14" font-weight="800" fill="var(--primary-text)">3</text>
      <rect id="ITEM_3_BG" x="170" y="502.0" width="470" height="156" rx="22" fill="var(--panel)" fill-opacity="0.97" stroke="var(--accent-3)" stroke-width="3.2"/>
      <rect x="170" y="502.0" width="470" height="16" rx="8" fill="var(--accent-3)" fill-opacity="0.55"/>
      <circle id="ITEM_3_PAD" cx="568.0" cy="580.0" r="40" fill="var(--icon-pad-bg)" opacity="0.95" fill-opacity="0.9" stroke-width="2" stroke="var(--primary-text)"/>
      <circle id="ITEM_3_PAD_INNER" cx="568.0" cy="580.0" r="31.20" fill="var(--accent-1)" fill-opacity="0.22"/>
      <circle cx="568.0" cy="580.0" r="32" fill="none" stroke="var(--accent-3)" stroke-width="3" stroke-dasharray="6 4"/>
      <g id="ITEM_3_ICON" transform="translate(538.0, 550.0)" data-icon-size="60" stroke-dasharray="6 4">
        <g transform="translate(-6.924770642201838,-6.352293577981655) scale(3.053211009174312)" vector-effect="non-scaling-stroke" stroke-width="2.43" stroke-linecap="round" stroke-linejoin="round" stroke-opacity="1.0">
          <path d="M17.8 19.2 16 11l3.5-3.5C21 6 21.5 4 21 3c-1-.5-3 0-4.5 1.5L13 8 4.8 6.2c-.5-.1-.9.1-1.1.5l-.3.5c-.2.5-.1 1 .3 1.3L9 12l-2 3H4l-1 1 3 2 2 3 1-1v-3l3-2 3.5 5.3c.3.4.8.5 1.3.3l.5-.2c.4-.3.6-.7.5-1.2z" vector-effect="non-scaling-stroke" fill="none" stroke="#f1f5f9"/>
        </g>
      </g>
      <text id="ITEM_3_HEAD" x="346.0" y="520.0" text-anchor="middle" font-weight="800" font-size="24" fill="var(--accent-1)" data-bg-id="ITEM_3_BG" fill-opacity="1.0" stroke="none" style="font-size: 30px; font-family: Inter, Segoe UI, Kalam, Roboto, Helvetica, Arial, sans-serif; font-weight: 700; letter-spacing:-0.4px;" data-final-font-size="30">
        <tspan x="346.0" dy="29.33px">Jets</tspan>
      </text>
      <rect id="ITEM_3_HEAD_FRAME" x="206.0" y="520.0" width="280" height="34" fill="none"/>
      <text id="ITEM_3_BODY" x="362.0" y="560.0" text-anchor="middle" font-size="18" fill="var(--primary-text)" data-bg-id="ITEM_3_BG" style="font-size: 26px; font-family: Inter, Segoe UI, Kalam, Roboto, Helvetica, Arial, sans-serif; font-weight: 400;" data-final-font-size="26">
        <tspan x="362.0" dy="26.20px">Interceptors scramble to</tspan>
        <tspan x="362.0" dy="29.90px">Redmond airport</tspan>
      </text>
      <rect id="ITEM_3_BODY_FRAME" x="202.0" y="560.0" width="320" height="70" fill="none"/>
    </g>
    <g filter="url(#svg4809b754-shadow)">
      <line x1="986" y1="742.5" x2="1316.0" y2="742.5" stroke="var(--accent-4)" stroke-width="3.5" opacity="0.84"/>
      <circle cx="960" cy="742.5" r="20" fill="var(--background)" stroke="var(--accent-4)" stroke-width="3.2"/>
      <text x="960" y="748.5" text-anchor="middle" font-size="14" font-weight="800" fill="var(--primary-text)">4</text>
      <rect id="ITEM_4_BG" x="1280" y="664.5" width="470" height="156" rx="22" fill="var(--panel)" fill-opacity="0.97" stroke="var(--accent-4)" stroke-width="3.2"/>
      <rect x="1280" y="664.5" width="470" height="16" rx="8" fill="var(--accent-4)" fill-opacity="0.55"/>
      <circle id="ITEM_4_PAD" cx="1352.0" cy="742.5" r="40" fill="var(--icon-pad-bg)" opacity="0.95" fill-opacity="0.9" stroke-width="2" stroke="var(--primary-text)"/>
      <circle id="ITEM_4_PAD_INNER" cx="1352.0" cy="742.5" r="31.20" fill="var(--accent-2)" fill-opacity="0.22"/>
      <circle cx="1352.0" cy="742.5" r="32" fill="none" stroke="var(--accent-4)" stroke-width="3" stroke-dasharray="6 4"/>
      <g id="ITEM_4_ICON" transform="translate(1322.0, 712.5)" data-icon-size="60" stroke-dasharray="6 4">
        <g transform="translate(-6.947368421052634,-5.578947368421056) scale(2.1894736842105265)">
          <path d="M13.9351 19.0067L13.9333 19.0087L13.9305 19.012L13.9229 19.0209C13.917 19.0278 13.9095 19.0368 13.9005 19.0478C13.8825 19.0697 13.8585 19.0997 13.8293 19.1378C13.771 19.214 13.692 19.3225 13.5995 19.4635C13.4145 19.7454 13.175 20.1573 12.9379 20.6994C12.4627 21.7854 12 23.3874 12 25.5C12 26.5106 11.7718 27.1659 11.4748 27.5998C11.1789 28.0322 10.7713 28.3082 10.2992 28.4853C9.46918 28.7965 8.56253 28.7737 7.88702 28.7568C7.7472 28.7533 7.61728 28.75 7.5 28.75C7.08579 28.75 6.75 29.0858 6.75 29.5C6.75 29.9142 7.08579 30.25 7.5 30.25C7.56951 30.25 7.66035 30.2529 7.76891 30.2563C8.4143 30.2768 9.68601 30.3172 10.8258 29.8898C11.5204 29.6293 12.2065 29.1866 12.7127 28.4471C13.2178 27.7091 13.5 26.7394 13.5 25.5C13.5 23.6126 13.9123 22.2146 14.3121 21.3006C14.5125 20.8427 14.7105 20.5046 14.8536 20.2865C14.9252 20.1775 14.9829 20.0985 15.0203 20.0497C15.039 20.0253 15.0526 20.0084 15.0602 19.9991L15.067 19.9909L15.066 19.9921L15.0653 19.9929L15.067 19.9909C15.3369 19.6792 15.3046 19.2075 14.9939 18.9356C14.6822 18.6628 14.2078 18.695 13.9351 19.0067Z" fill="#3F5FFF"/>
          <path d="M15.5446 19.0905L13.8083 18.3464C13.3732 18.1599 12.8716 18.3852 12.7219 18.8343C12.5946 19.2163 12.7675 19.6338 13.1277 19.8139L14.8173 20.6587C15.2073 20.8537 15.6815 20.7277 15.9234 20.3649C16.2233 19.9151 16.0415 19.3035 15.5446 19.0905Z" fill="#3F5FFF"/>
          <path d="M27 11C27 15.9706 22.9706 20 18 20C13.0294 20 9 15.9706 9 11C9 6.02944 13.0294 2 18 2C22.9706 2 27 6.02944 27 11Z" fill="#F8312F"/>
          <path d="M15.208 21.648L12.1528 20.2901C11.7825 20.1256 11.5977 19.7067 11.7259 19.3222C11.8728 18.8815 12.3675 18.6633 12.792 18.852L15.8471 20.2098C16.2174 20.3744 16.4022 20.7933 16.2741 21.1777C16.1272 21.6184 15.6325 21.8366 15.208 21.648Z" fill="#CA0B4A"/>
          <path d="M24.1622 6.83776C25.0596 7.7352 25.2669 8.98294 24.6252 9.62465C23.9835 10.2664 22.7358 10.0591 21.8383 9.16161C20.9409 8.26417 20.7336 7.01644 21.3753 6.37473C22.017 5.73301 23.2647 5.94032 24.1622 6.83776Z" fill="#FF8687"/>
        </g>
      </g>
      <text id="ITEM_4_HEAD" x="1570.0" y="682.5" text-anchor="middle" font-weight="800" font-size="24" fill="var(--accent-2)" data-bg-id="ITEM_4_BG" fill-opacity="1.0" stroke="none" style="font-size: 30px; font-family: Inter, Segoe UI, Kalam, Roboto, Helvetica, Arial, sans-serif; font-weight: 700; letter-spacing:-0.4px;" data-final-font-size="30">
        <tspan x="1570.0" dy="29.33px">Festival</tspan>
      </text>
      <rect id="ITEM_4_HEAD_FRAME" x="1430.0" y="682.5" width="280" height="34" fill="none"/>
      <text id="ITEM_4_BODY" x="1580.0" y="722.5" text-anchor="middle" font-size="18" fill="var(--primary-text)" data-bg-id="ITEM_4_BG" style="font-size: 26px; font-family: Inter, Segoe UI, Kalam, Roboto, Helvetica, Arial, sans-serif; font-weight: 400;" data-final-font-size="26">
        <tspan x="1580.0" dy="26.20px">McMinnville hosts annual</tspan>
        <tspan x="1580.0" dy="29.90px">UFO celebration</tspan>
      </text>
      <rect id="ITEM_4_BODY_FRAME" x="1420.0" y="722.5" width="320" height="70" fill="none"/>
    </g>
    <g filter="url(#svg4809b754-shadow)">
      <line x1="934" y1="905.0" x2="604.0" y2="905.0" stroke="var(--accent-5)" stroke-width="3.5" opacity="0.84"/>
      <circle cx="960" cy="905.0" r="20" fill="var(--background)" stroke="var(--accent-5)" stroke-width="3.2"/>
      <text x="960" y="911.0" text-anchor="middle" font-size="14" font-weight="800" fill="var(--primary-text)">5</text>
      <rect id="ITEM_5_BG" x="170" y="827.0" width="470" height="156" rx="22" fill="var(--panel)" fill-opacity="0.97" stroke="var(--accent-5)" stroke-width="3.2"/>
      <rect x="170" y="827.0" width="470" height="16" rx="8" fill="var(--accent-5)" fill-opacity="0.55"/>
      <circle id="ITEM_5_PAD" cx="568.0" cy="905.0" r="40" fill="var(--icon-pad-bg)" opacity="0.95" fill-opacity="0.9" stroke-width="2" stroke="var(--primary-text)"/>
      <circle id="ITEM_5_PAD_INNER" cx="568.0" cy="905.0" r="31.20" fill="var(--accent-3)" fill-opacity="0.22"/>
      <circle cx="568.0" cy="905.0" r="32" fill="none" stroke="var(--accent-5)" stroke-width="3" stroke-dasharray="6 4"/>
      <g id="ITEM_5_ICON" transform="translate(538.0, 875.0)" data-icon-size="60" stroke-dasharray="6 4">
        <g transform="translate(-4.133333333333342,-3.8666666666666734) scale(0.13333333333333336)" vector-effect="non-scaling-stroke" fill="#f1f5f9" fill-opacity="1.0" stroke="none">
          <path fill="#f1f5f9" d="M352 21v18h39v16h18V39h39V21zm35 52l-40 30h106l-40-30zM69.48 120.5l-8.96 15.6l110.98 63.7l35.6 20.4l33.6-58.7l-77 13.1zM329 121v30h30v-30zm48 0v30h46v-30zm64 0v30h30v-30zm-103 48l34.5 46h55l34.5-46zm39 64v30h46v-30zm0 48v206h46V281zM68.52 329L34.3 375H359v-46zM25 393v94h30v-64h66v64h238v-94zm416 .5V487h46v-65.9zM160 439h48v18h-48zm96 0h48v18h-48zm-183 2v46h30v-46z" vector-effect="non-scaling-stroke" stroke="none"/>
        </g>
      </g>
      <text id="ITEM_5_HEAD" x="346.0" y="845.0" text-anchor="middle" font-weight="800" font-size="24" fill="var(--accent-3)" data-bg-id="ITEM_5_BG" fill-opacity="1.0" stroke="none" style="font-size: 30px; font-family: Inter, Segoe UI, Kalam, Roboto, Helvetica, Arial, sans-serif; font-weight: 700; letter-spacing:-0.4px;" data-final-font-size="30">
        <tspan x="346.0" dy="29.33px">Reports</tspan>
      </text>
      <rect id="ITEM_5_HEAD_FRAME" x="206.0" y="845.0" width="280" height="34" fill="none"/>
      <text id="ITEM_5_BODY" x="362.0" y="885.0" text-anchor="middle" font-size="18" fill="var(--primary-text)" data-bg-id="ITEM_5_BG" style="font-size: 26px; font-family: Inter, Segoe UI, Kalam, Roboto, Helvetica, Arial, sans-serif; font-weight: 400;" data-final-font-size="26">
        <tspan x="362.0" dy="26.20px">Pilots log unidentified</tspan>
        <tspan x="362.0" dy="29.90px">lights near Eugene</tspan>
      </text>
      <rect id="ITEM_5_BODY_FRAME" x="202.0" y="885.0" width="320" height="70" fill="none"/>
    </g>
  </g>
</svg>
