<?xml version='1.0' encoding='utf-8'?>
<svg xmlns="http://www.w3.org/2000/svg" width="1920" height="1080" viewBox="0 0 1920 1080" data-theme="light">
  <style>
        @font-face {
            font-family: 'Inter';
            src: url('assets/fonts/Inter-Regular.ttf') format('truetype');
            font-weight: 400;
            font-style: normal;
            font-display: swap;
        }
        @font-face {
            font-family: 'Inter';
            src: url('assets/fonts/Inter-Bold.ttf') format('truetype');
            font-weight: 600;
            font-style: normal;
            font-display: swap;
        }
        @font-face {
            font-family: 'Inter';
            src: url('assets/fonts/Inter-Bold.ttf') format('truetype');
            font-weight: 800;
            font-style: normal;
            font-display: swap;
        }
        
:root {
    --background: #f8fafc;
    --panel: #ffffff;
    --primary-text: #0f172a;
    --muted-text: #64748b;
    --inverse-text: #ffffff;
    --border: #e2e8f0;
    --shadow-color: #000000;
    --icon-pad-bg: #1e293b;
    --art-glow: #0891b2;
    --art-glow-opacity: 0.10;
    --art-sheen: #ffffff;
    --art-sheen-opacity: 0.34;
    --art-shadow: #0f172a;
    --art-shadow-opacity: 0.14;
    --art-muted-line: #94a3b8;
    --art-panel-tint: #f1f5f9;
    --font-family: 'Inter', 'Segoe UI', 'Kalam', Roboto, Helvetica, Arial, sans-serif;
    --radius-xl: 16px;
    --font-family-headline: 'Inter', 'Segoe UI', 'Kalam', Roboto, Helvetica, Arial, sans-serif;
    --font-family-body: 'Inter', 'Segoe UI', 'Kalam', Roboto, Helvetica, Arial, sans-serif;
    --font-heading: 'Inter', 'Segoe UI', 'Kalam', Roboto, Helvetica, Arial, sans-serif;
    --font-body: 'Inter', 'Segoe UI', 'Kalam', Roboto, Helvetica, Arial, sans-serif;
    --font-size-h1: 56px;
    --font-size-h2: 40px;
    --font-size-h3: 28px;
    --font-size-body: 24px;
    --font-size-caption: 18px;
    --secondary-text: var(--muted-text);
    --panel-border: var(--border);
    --font-weight-normal: 400;
    --font-weight-medium: 500;
    --font-weight-semibold: 600;
    --font-weight-bold: 700;
    --spacing-gutter-pct: 0.07;
    --spacing-top-pct: 0.15;
    --spacing-bottom-pct: 0.07;
    --spacing-title-y-pct: 0.055;
    --accent-1: #d97706;
    --accent-2: #ea580c;
    --accent-3: #dc2626;
    --accent-4: #65a30d;
    --accent-5: #16a34a;
    --accent-6: #92400e;
}
:root[data-theme="dark"] {
    --background: #0f172a;
    --panel: #1e293b;
    --primary-text: #f1f5f9;
    --muted-text: #94a3b8;
    --inverse-text: #0f172a;
    --border: #334155;
    --shadow-color: #000000;
    --icon-pad-bg: #1e293b;
    --art-glow: #7dd3fc;
    --art-glow-opacity: 0.18;
    --art-sheen: #ffffff;
    --art-sheen-opacity: 0.18;
    --art-shadow: #000000;
    --art-shadow-opacity: 0.28;
    --art-muted-line: #64748b;
    --art-panel-tint: #1e293b;
    --accent-1: #fbbf24;
    --accent-2: #fb923c;
    --accent-3: #f87171;
    --accent-4: #a3e635;
    --accent-5: #4ade80;
    --accent-6: #d4a574;
}
:root[data-theme="light"] {
    --background: #f8fafc;
    --panel: #ffffff;
    --primary-text: #0f172a;
    --muted-text: #64748b;
    --inverse-text: #ffffff;
    --border: #e2e8f0;
    --shadow-color: #000000;
    --icon-pad-bg: #1e293b;
    --art-glow: #0891b2;
    --art-glow-opacity: 0.10;
    --art-sheen: #ffffff;
    --art-sheen-opacity: 0.34;
    --art-shadow: #0f172a;
    --art-shadow-opacity: 0.14;
    --art-muted-line: #94a3b8;
    --art-panel-tint: #f1f5f9;
    --accent-1: #d97706;
    --accent-2: #ea580c;
    --accent-3: #dc2626;
    --accent-4: #65a30d;
    --accent-5: #16a34a;
    --accent-6: #92400e;
}</style>
  <rect x="0" y="0" width="1.92E+3" height="1.08E+3" fill="#252a34" stroke="none" id="programmatic_background"/>
  <line id="HEADER_DECOR" x1="960.0" x2="1080.0" y1="135.0" y2="135.0" stroke="var(--accent-1)" stroke-width="6" stroke-linecap="round"/>
  <defs>
    <pattern id="svga0649d3c-napkin-hatch" patternUnits="userSpaceOnUse" width="12" height="12">
      <path d="M -3 12 L 12 -3 M 0 15 L 15 0" fill="none" stroke="var(--primary-text)" stroke-width="1" stroke-opacity="0.05"/>
    </pattern>
    <filter id="svga0649d3c-shadow" x="-30%" y="-30%" width="160%" height="160%">
      <feDropShadow dx="0" dy="3" stdDeviation="4" flood-color="#000000" flood-opacity="0.10"/>
      <feDropShadow dx="0" dy="10" stdDeviation="16" flood-color="#000000" flood-opacity="0.12"/>
    </filter>
    <radialGradient id="svga0649d3c-universal-edge-vignette" cx="50%" cy="50%" r="72%">
      <stop offset="0%" stop-color="var(--background)" stop-opacity="0"/>
      <stop offset="72%" stop-color="var(--background)" stop-opacity="0.12"/>
      <stop offset="100%" stop-color="var(--primary-text)" stop-opacity="0.08"/>
    </radialGradient>
    <linearGradient id="svga0649d3c-universal-surface-sheen" x1="0%" y1="0%" x2="100%" y2="100%">
      <stop offset="0%" stop-color="var(--art-sheen)" stop-opacity="var(--art-sheen-opacity)"/>
      <stop offset="46%" stop-color="var(--art-sheen)" stop-opacity="0.035"/>
      <stop offset="100%" stop-color="var(--art-panel-tint)" stop-opacity="0.14"/>
    </linearGradient>
    <radialGradient id="svga0649d3c-universal-icon-aura" cx="50%" cy="42%" r="64%">
      <stop offset="0%" stop-color="var(--art-glow)" stop-opacity="var(--art-glow-opacity)"/>
      <stop offset="100%" stop-color="var(--background)" stop-opacity="0"/>
    </radialGradient>
    <filter id="svga0649d3c-text-glow" x="-20%" y="-20%" width="140%" height="140%">
      <feDropShadow dx="0" dy="0" stdDeviation="2" flood-color="#000000" flood-opacity="0.4"/>
    </filter>
    <marker id="svga0649d3c-arrowhead" markerWidth="10" markerHeight="7" refX="9" refY="3.5" orient="auto" markerUnits="strokeWidth">
      <polygon points="0 0, 10 3.5, 0 7" fill="var(--muted-text)" opacity="0.6"/>
    </marker>
  </defs>
  <rect id="CANVAS_BG" width="100%" height="100%" fill="var(--background)"/>
  <rect width="100%" height="100%" fill="url(#svga0649d3c-napkin-hatch)"/>
  <rect id="UNIVERSAL_EDGE_VIGNETTE" width="100%" height="100%" fill="url(#svga0649d3c-universal-edge-vignette)" opacity="0.62"/>
  <text id="TITLE" x="960.0" y="59" text-anchor="middle" font-weight="800" font-size="56" fill="#0f172a" style="font-size: 60px; font-family: Inter, Segoe UI, Kalam, Roboto, Helvetica, Arial, sans-serif; font-weight: 700; letter-spacing:-1.2px;" data-final-font-size="60">
    <tspan x="960.0" dy="68.00px">Legend vs Record</tspan>
  </text>
  <rect id="TITLE_FRAME" x="134" y="59" width="1652" height="103" fill="none"/>
  <g id="FIELD">
    <rect x="190" y="250" width="650" height="270" rx="34" fill="var(--accent-1)" fill-opacity="0.08" stroke="var(--accent-1)" stroke-width="2" stroke-opacity="0.22"/>
    <rect x="1080" y="250" width="650" height="270" rx="34" fill="var(--accent-2)" fill-opacity="0.08" stroke="var(--accent-2)" stroke-width="2" stroke-opacity="0.22"/>
    <rect x="190" y="680" width="650" height="270" rx="34" fill="var(--accent-4)" fill-opacity="0.08" stroke="var(--accent-4)" stroke-width="2" stroke-opacity="0.18"/>
    <rect x="1080" y="680" width="650" height="270" rx="34" fill="var(--accent-5)" fill-opacity="0.08" stroke="var(--accent-5)" stroke-width="2" stroke-opacity="0.18"/>
    <line x1="960" y1="226" x2="960" y2="974" stroke="var(--primary-text)" stroke-width="11" stroke-opacity="0.20"/>
    <line x1="176" y1="600" x2="1744" y2="600" stroke="var(--primary-text)" stroke-width="11" stroke-opacity="0.20"/>
    <path d="M 960 534 L 1028 600 L 960 666 L 892 600 Z" fill="var(--panel)" fill-opacity="0.94" stroke="var(--primary-text)" stroke-width="4" stroke-opacity="0.28"/>
    <circle cx="960" cy="600" r="38" fill="var(--background)" stroke="var(--primary-text)" stroke-width="4"/>
    <g transform="translate(490, 384)">
      <rect id="ITEM_1_BG" x="-280" y="-110" width="560" height="220" rx="30" fill="var(--panel)" fill-opacity="0.95" stroke="var(--accent-1)" stroke-width="3" filter="url(#svga0649d3c-shadow)"/>
      <rect x="-280" y="-110" width="560" height="220" rx="18" fill="url(#svga0649d3c-universal-surface-sheen)" opacity="0.84"/>
      <rect x="226" y="-82" width="16" height="164" rx="8" fill="var(--accent-1)" fill-opacity="0.22"/>
      <circle cx="198" cy="-16" r="78" fill="none" stroke="var(--accent-1)" stroke-width="2.5" stroke-opacity="0.14"/>
      <text id="ITEM_1_HEAD" x="-220.0" y="-82.0" text-anchor="start" font-weight="700" font-size="29" fill="var(--primary-text)" data-bg-id="ITEM_1_BG" fill-opacity="1.0" style="font-size: 30px; font-family: Inter, Segoe UI, Kalam, Roboto, Helvetica, Arial, sans-serif; font-weight: 700; letter-spacing:-0.4px;" data-final-font-size="30">
        <tspan x="-220.0" dy="29.91px">Initial Report</tspan>
      </text>
      <rect id="ITEM_1_HEAD_FRAME" x="-220" y="-82" width="350" height="38" fill="none"/>
      <text id="ITEM_1_BODY" x="-220.0" y="-2.0" text-anchor="start" font-size="20" fill="var(--primary-text)" data-bg-id="ITEM_1_BG" style="font-size: 26px; font-family: Inter, Segoe UI, Kalam, Roboto, Helvetica, Arial, sans-serif; font-weight: 400;" data-final-font-size="26">
        <tspan x="-220.0" dy="32.10px">Witnesses describe lights</tspan>
        <tspan x="-220.0" dy="29.90px">and tracks</tspan>
      </text>
      <rect id="ITEM_1_BODY_FRAME" x="-220" y="-2" width="360" height="102" fill="none"/>
      <circle id="ITEM_1_PAD" cx="198" cy="-16" r="48" fill="var(--icon-pad-bg)" opacity="0.96" fill-opacity="0.9" stroke-width="2" stroke="var(--primary-text)"/>
      <circle id="ITEM_1_PAD_INNER" cx="198" cy="-16" r="37.44" fill="var(--accent-4)" fill-opacity="0.22"/>
      <circle cx="198" cy="-16" r="38" fill="none" stroke="var(--accent-1)" stroke-width="2.5" stroke-dasharray="6 4"/>
      <g id="ITEM_1_ICON" transform="translate(160, -54)" data-icon-size="76" stroke-dasharray="6 4">
        <g transform="translate(-5.428571428571431,-5.428571428571429) scale(2.7142857142857144)">
          <path d="M8 26H27V4C27 2.89543 26.1046 2 25 2H8V26Z" fill="#533566"/>
          <path d="M6 27H27V29H6V27Z" fill="#D3D3D3"/>
          <path d="M12.5 7C12.5 6.44772 12.9477 6 13.5 6H18.5C19.0523 6 19.5 6.44772 19.5 7V9C19.5 9.55228 19.0523 10 18.5 10H13.5C12.9477 10 12.5 9.55228 12.5 9V7Z" fill="white"/>
          <path d="M6.5 2C5.67157 2 5 2.67157 5 3.5V28H6C6 27.4477 6.44772 27 7 27H8V2H6.5Z" fill="#321B41"/>
          <path d="M6.5 26C5.67157 26 5 26.6716 5 27.5V28.5C5 29.3284 5.67157 30 6.5 30H25.5C26.1531 30 26.7087 29.5826 26.9146 29H7C6.44772 29 6 28.5523 6 28C6 27.4477 6.44772 27 7 27H27V26H6.5Z" fill="#6B438B"/>
          <path d="M23 2H24V30H23V2Z" fill="#6B438B"/>
        </g>
      </g>
    </g>
    <g transform="translate(1430, 384)">
      <rect id="ITEM_2_BG" x="-280" y="-110" width="560" height="220" rx="30" fill="var(--panel)" fill-opacity="0.95" stroke="var(--accent-2)" stroke-width="3" filter="url(#svga0649d3c-shadow)"/>
      <rect x="-280" y="-110" width="560" height="220" rx="18" fill="url(#svga0649d3c-universal-surface-sheen)" opacity="0.84"/>
      <rect x="-242" y="-82" width="16" height="164" rx="8" fill="var(--accent-2)" fill-opacity="0.22"/>
      <circle cx="-198" cy="-16" r="78" fill="none" stroke="var(--accent-2)" stroke-width="2.5" stroke-opacity="0.14"/>
      <text id="ITEM_2_HEAD" x="220.0" y="-82.0" text-anchor="end" font-weight="700" font-size="29" fill="var(--primary-text)" data-bg-id="ITEM_2_BG" fill-opacity="1.0" style="font-size: 30px; font-family: Inter, Segoe UI, Kalam, Roboto, Helvetica, Arial, sans-serif; font-weight: 700; letter-spacing:-0.4px;" data-final-font-size="30">
        <tspan x="220.0" dy="29.91px">Air Force Review</tspan>
      </text>
      <rect id="ITEM_2_HEAD_FRAME" x="-130" y="-82" width="350" height="38" fill="none"/>
      <text id="ITEM_2_BODY" x="220.0" y="-2.0" text-anchor="end" font-size="20" fill="var(--primary-text)" data-bg-id="ITEM_2_BG" style="font-size: 26px; font-family: Inter, Segoe UI, Kalam, Roboto, Helvetica, Arial, sans-serif; font-weight: 400;" data-final-font-size="26">
        <tspan x="220.0" dy="32.10px">Investigators separate lights</tspan>
        <tspan x="220.0" dy="29.90px">from tracks</tspan>
      </text>
      <rect id="ITEM_2_BODY_FRAME" x="-140" y="-2" width="360" height="102" fill="none"/>
      <circle id="ITEM_2_PAD" cx="-198" cy="-16" r="48" fill="var(--icon-pad-bg)" opacity="0.96" fill-opacity="0.9" stroke-width="2" stroke="var(--primary-text)"/>
      <circle id="ITEM_2_PAD_INNER" cx="-198" cy="-16" r="37.44" fill="var(--accent-5)" fill-opacity="0.22"/>
      <circle cx="-198" cy="-16" r="38" fill="none" stroke="var(--accent-2)" stroke-width="2.5" stroke-dasharray="6 4"/>
      <g id="ITEM_2_ICON" transform="translate(-236, -54)" data-icon-size="76" stroke-dasharray="6 4">
        <g transform="translate(-5.428571428571429,-4.0714285714285765) scale(2.7142857142857144)">
          <path d="M2.98999 10C2.44323 10 2 10.4517 2 10.9985V11C2 11.4995 2.25209 11.7505 2.50442 12.0017C2.75725 12.2534 3.01032 12.5054 3.01032 13.0078V13.1625C3.00607 13.2345 3.00391 13.307 3.00391 13.38V15.62C3.00391 18.57 5.20765 20.9892 7.93697 20.9892H9.91019C12.7133 20.9892 15 18.51 15 15.47V13.9972H15.0039C15.0039 13.461 15.3182 13 16.0028 13C16.6438 13 16.962 13.3972 17 13.8943V15.47C17 18.51 19.2801 20.98 22.0865 20.98H24.062C26.7852 20.98 29.01 18.58 29.01 15.62V14.0039H29.013V13C29.013 12.501 29.2588 12.2521 29.505 12.0027C29.75 11.7544 29.9956 11.5057 29.9999 11.0096L30 10.9985V10.9961C29.9987 10.4504 29.556 10 29.01 10H19.99C19.9283 10 19.8679 10.0058 19.8094 10.0167C19.0939 10.0942 18.4478 10.436 17.9561 10.95C17.8726 11.0282 17.7935 11.1073 17.7157 11.1851C17.2875 11.6133 16.897 12.0039 16.0028 12.0039C15.0888 12.0039 14.7129 11.6249 14.2747 11.1829C14.1913 11.0988 14.1056 11.0124 14.0136 10.926C13.5278 10.4287 12.8967 10.0974 12.1988 10.0183C12.1377 10.0063 12.0746 10 12.01 10H2.98999Z" fill="#533566"/>
          <path d="M24.0526 20.0048C26.2682 20.0048 28.0032 18.01 28.0032 15.61V13.38C28.0032 12.07 27.0898 11 25.8804 11H20.1201C18.9108 11 18.0154 12.07 18.0062 13.38V15.46C18.0062 17.95 19.7877 20.0048 22.0771 20.0048H24.0526ZM14.0055 15.47C14.0055 17.95 12.206 20.0039 9.91007 20.0039H7.94607C5.73311 20.0039 4.00293 18.02 4.00293 15.62V13.38C4.00293 12.07 4.91247 11 6.12038 11H11.8833C13.0912 11 14.0055 12.07 14.0055 13.38V15.47Z" fill="#83CBFF"/>
          <path d="M25.7725 15.901C26.7872 15.5561 27.2715 14.4275 26.8448 13.3825C26.4182 12.3271 25.2421 11.7523 24.2275 12.0972C23.2128 12.442 22.7285 13.5706 23.1551 14.6156C23.5818 15.6606 24.7579 16.2458 25.7725 15.901ZM11.7725 15.9049C12.7872 15.56 13.2715 14.4311 12.8448 13.3859C12.4182 12.3302 11.2421 11.7553 10.2275 12.1002C9.21279 12.4347 8.72852 13.574 9.15514 14.6193C9.58176 15.6645 10.7579 16.2394 11.7725 15.9049Z" fill="white"/>
        </g>
      </g>
    </g>
    <g transform="translate(960, 600)">
      <rect id="ITEM_3_BG" x="-310" y="-108" width="620" height="216" rx="32" fill="var(--panel)" fill-opacity="0.96" stroke="var(--accent-3)" stroke-width="3" filter="url(#svga0649d3c-shadow)"/>
      <rect x="-248" y="-76" width="496" height="12" rx="6" fill="var(--accent-3)" fill-opacity="0.18"/>
      <circle cx="0" cy="-18" r="86" fill="none" stroke="var(--accent-3)" stroke-width="2.5" stroke-opacity="0.14"/>
      <text id="ITEM_3_HEAD" x="0.0" y="-78.0" text-anchor="middle" font-weight="700" font-size="30" fill="var(--accent-6)" data-bg-id="ITEM_3_BG" fill-opacity="1.0" style="font-size: 30px; font-family: Inter, Segoe UI, Kalam, Roboto, Helvetica, Arial, sans-serif; font-weight: 700; letter-spacing:-0.4px;" data-final-font-size="30">
        <tspan x="0.0" dy="29.91px">Creature Analysis</tspan>
      </text>
      <rect id="ITEM_3_HEAD_FRAME" x="-250" y="-78" width="500" height="38" fill="none"/>
      <text id="ITEM_3_BODY" x="0.0" y="2.0" text-anchor="middle" font-size="20" fill="var(--primary-text)" data-bg-id="ITEM_3_BG" style="font-size: 26px; font-family: Inter, Segoe UI, Kalam, Roboto, Helvetica, Arial, sans-serif; font-weight: 400;" data-final-font-size="26">
        <tspan x="0.0" dy="37.16px">Figure treated as probable animal</tspan>
      </text>
      <rect id="ITEM_3_BODY_FRAME" x="-250" y="2" width="500" height="98" fill="none"/>
      <circle id="ITEM_3_PAD" cx="0" cy="-18" r="50" fill="var(--icon-pad-bg)" opacity="0.96" fill-opacity="0.9" stroke-width="2" stroke="var(--primary-text)"/>
      <circle id="ITEM_3_PAD_INNER" cx="0" cy="-18" r="39.00" fill="var(--accent-6)" fill-opacity="0.22"/>
      <circle cx="0" cy="-18" r="40" fill="none" stroke="var(--accent-3)" stroke-width="2.5" stroke-dasharray="6 4"/>
      <g id="ITEM_3_ICON" transform="translate(-40, -58)" data-icon-size="80" stroke-dasharray="6 4">
        <g transform="translate(-5.714285714285714,-6.071428571428575) scale(2.857142857142857)">
          <path d="M4.71839 18.0233C5.11525 17.458 5.8952 17.3215 6.46045 17.7184L18.5318 26.1936L17.0946 28.2406L5.02328 19.7653C4.45803 19.3685 4.32152 18.5885 4.71839 18.0233Z" fill="#5092FF"/>
          <path d="M18.5013 2.80347C18.8302 2.3598 19.4615 2.25982 19.9114 2.58017L21.5841 3.77124C22.034 4.09158 22.1321 4.71094 21.8032 5.15461L13.1102 16.8809C12.4436 17.7801 11.1641 17.9827 10.2523 17.3335C9.34053 16.6842 9.14176 15.429 9.80835 14.5298L18.5013 2.80347Z" fill="#636363"/>
          <path d="M18.0472 3.66594C16.8384 3.31432 15.3804 3.86071 14.5971 4.91739L11.7749 8.7243L11.9999 10.0001L10.6024 10.306L10.3989 10.5805C9.07399 12.3677 9.47824 14.8692 11.3018 16.1677C13.1254 17.4662 15.6778 17.07 17.0027 15.2828L17.1623 15.0675L16.9999 13.5001H18.3242L18.4883 13.2787C21.992 13.9302 23.8684 16.851 23.963 19.8545C24.0149 21.5041 23.5209 23.1307 22.4806 24.3899C21.4537 25.6329 19.8112 26.6185 17.3793 26.8486C16.5451 26.9276 15.9304 27.6956 16.0062 28.564C16.082 29.4325 16.8197 30.0725 17.6539 29.9935C20.7829 29.6974 23.1847 28.3804 24.7802 26.4491C26.3624 24.5339 27.069 22.1145 26.9946 19.751C26.8719 15.8564 24.6058 11.9837 20.5048 10.5586L21.2008 9.61967C21.9842 8.56299 22.0639 7.03517 21.3491 6.01708L18.0472 3.66594Z" fill="#BEBEBE"/>
          <path d="M2 29.2C2 27.4327 3.43269 26 5.2 26H26.8C28.5673 26 30 27.4327 30 29.2C30 29.6418 29.6418 30 29.2 30H2.8C2.35817 30 2 29.6418 2 29.2Z" fill="#9B9B9B"/>
          <path d="M11.7757 8.70947L18.3343 13.4746L17.1588 15.0927L10.6001 10.3275L11.7757 8.70947Z" fill="#D3D3D3"/>
        </g>
      </g>
    </g>
    <g transform="translate(490, 816)">
      <rect id="ITEM_4_BG" x="-280" y="-110" width="560" height="220" rx="30" fill="var(--panel)" fill-opacity="0.95" stroke="var(--accent-4)" stroke-width="3" filter="url(#svga0649d3c-shadow)"/>
      <rect x="-280" y="-110" width="560" height="220" rx="18" fill="url(#svga0649d3c-universal-surface-sheen)" opacity="0.84"/>
      <rect x="226" y="-82" width="16" height="164" rx="8" fill="var(--accent-4)" fill-opacity="0.22"/>
      <circle cx="198" cy="-16" r="78" fill="none" stroke="var(--accent-4)" stroke-width="2.5" stroke-opacity="0.14"/>
      <text id="ITEM_4_HEAD" x="-220.0" y="-82.0" text-anchor="start" font-weight="700" font-size="29" fill="var(--primary-text)" data-bg-id="ITEM_4_BG" fill-opacity="1.0" style="font-size: 30px; font-family: Inter, Segoe UI, Kalam, Roboto, Helvetica, Arial, sans-serif; font-weight: 700; letter-spacing:-0.4px;" data-final-font-size="30">
        <tspan x="-220.0" dy="29.91px">File Closure</tspan>
      </text>
      <rect id="ITEM_4_HEAD_FRAME" x="-220" y="-82" width="350" height="38" fill="none"/>
      <text id="ITEM_4_BODY" x="-220.0" y="-2.0" text-anchor="start" font-size="20" fill="var(--primary-text)" data-bg-id="ITEM_4_BG" style="font-size: 26px; font-family: Inter, Segoe UI, Kalam, Roboto, Helvetica, Arial, sans-serif; font-weight: 400;" data-final-font-size="26">
        <tspan x="-220.0" dy="32.10px">Case remains unknown</tspan>
        <tspan x="-220.0" dy="29.90px">regarding lights</tspan>
      </text>
      <rect id="ITEM_4_BODY_FRAME" x="-220" y="-2" width="360" height="102" fill="none"/>
      <circle id="ITEM_4_PAD" cx="198" cy="-16" r="48" fill="var(--icon-pad-bg)" opacity="0.96" fill-opacity="0.9" stroke-width="2" stroke="var(--primary-text)"/>
      <circle id="ITEM_4_PAD_INNER" cx="198" cy="-16" r="37.44" fill="var(--accent-1)" fill-opacity="0.22"/>
      <circle cx="198" cy="-16" r="38" fill="none" stroke="var(--accent-4)" stroke-width="2.5" stroke-dasharray="6 4"/>
      <g id="ITEM_4_ICON" transform="translate(160, -54)" data-icon-size="76" stroke-dasharray="6 4">
        <g transform="translate(-3.2203389830508473,-1.2881355932203382) scale(3.4350282485875705)" vector-effect="non-scaling-stroke" stroke-width="2.62" stroke-linecap="round" stroke-linejoin="round" stroke-opacity="1.0">
          <path d="M20 20a2 2 0 0 0 2-2V8a2 2 0 0 0-2-2h-7.9a2 2 0 0 1-1.69-.9L9.6 3.9A2 2 0 0 0 7.93 3H4a2 2 0 0 0-2 2v13a2 2 0 0 0 2 2Z" vector-effect="non-scaling-stroke" fill="none" stroke="#f1f5f9"/>
        </g>
      </g>
    </g>
    <g transform="translate(1430, 816)">
      <rect id="ITEM_5_BG" x="-280" y="-110" width="560" height="220" rx="30" fill="var(--panel)" fill-opacity="0.95" stroke="var(--accent-5)" stroke-width="3" filter="url(#svga0649d3c-shadow)"/>
      <rect x="-280" y="-110" width="560" height="220" rx="18" fill="url(#svga0649d3c-universal-surface-sheen)" opacity="0.84"/>
      <rect x="-242" y="-82" width="16" height="164" rx="8" fill="var(--accent-5)" fill-opacity="0.22"/>
      <circle cx="-198" cy="-16" r="78" fill="none" stroke="var(--accent-5)" stroke-width="2.5" stroke-opacity="0.14"/>
      <text id="ITEM_5_HEAD" x="220.0" y="-82.0" text-anchor="end" font-weight="700" font-size="29" fill="var(--primary-text)" data-bg-id="ITEM_5_BG" fill-opacity="1.0" style="font-size: 30px; font-family: Inter, Segoe UI, Kalam, Roboto, Helvetica, Arial, sans-serif; font-weight: 700; letter-spacing:-0.4px;" data-final-font-size="30">
        <tspan x="220.0" dy="29.91px">Public Memory</tspan>
      </text>
      <rect id="ITEM_5_HEAD_FRAME" x="-130" y="-82" width="350" height="38" fill="none"/>
      <text id="ITEM_5_BODY" x="220.0" y="-2.0" text-anchor="end" font-size="20" fill="var(--primary-text)" data-bg-id="ITEM_5_BG" style="font-size: 26px; font-family: Inter, Segoe UI, Kalam, Roboto, Helvetica, Arial, sans-serif; font-weight: 400;" data-final-font-size="26">
        <tspan x="220.0" dy="32.10px">Legend merges all elements</tspan>
        <tspan x="220.0" dy="29.90px">into one</tspan>
      </text>
      <rect id="ITEM_5_BODY_FRAME" x="-140" y="-2" width="360" height="102" fill="none"/>
      <circle id="ITEM_5_PAD" cx="-198" cy="-16" r="48" fill="var(--icon-pad-bg)" opacity="0.96" fill-opacity="0.9" stroke-width="2" stroke="var(--primary-text)"/>
      <circle id="ITEM_5_PAD_INNER" cx="-198" cy="-16" r="37.44" fill="var(--accent-2)" fill-opacity="0.22"/>
      <circle cx="-198" cy="-16" r="38" fill="none" stroke="var(--accent-5)" stroke-width="2.5" stroke-dasharray="6 4"/>
      <g id="ITEM_5_ICON" transform="translate(-236, -54)" data-icon-size="76" stroke-dasharray="6 4">
        <g transform="translate(-2.533333333333333,-3.8000000000000007) scale(0.31666666666666665)" vector-effect="non-scaling-stroke" stroke-width="2.62" stroke-linecap="round" stroke-linejoin="round" stroke-opacity="1.0">
          <path d="M24,64H232a8,8,0,0,1,8,8V176a0,0,0,0,1,0,0H16a0,0,0,0,1,0,0V72A8,8,0,0,1,24,64Z" fill="none" stroke="#f1f5f9" vector-effect="non-scaling-stroke"/>
          <line x1="16" y1="176" x2="16" y2="200" fill="none" stroke="#f1f5f9" vector-effect="non-scaling-stroke"/>
          <line x1="48" y1="176" x2="48" y2="200" fill="none" stroke="#f1f5f9" vector-effect="non-scaling-stroke"/>
          <line x1="80" y1="176" x2="80" y2="200" fill="none" stroke="#f1f5f9" vector-effect="non-scaling-stroke"/>
          <line x1="112" y1="176" x2="112" y2="200" fill="none" stroke="#f1f5f9" vector-effect="non-scaling-stroke"/>
          <line x1="144" y1="176" x2="144" y2="200" fill="none" stroke="#f1f5f9" vector-effect="non-scaling-stroke"/>
          <line x1="176" y1="176" x2="176" y2="200" fill="none" stroke="#f1f5f9" vector-effect="non-scaling-stroke"/>
          <line x1="208" y1="176" x2="208" y2="200" fill="none" stroke="#f1f5f9" vector-effect="non-scaling-stroke"/>
          <line x1="240" y1="176" x2="240" y2="200" fill="none" stroke="#f1f5f9" vector-effect="non-scaling-stroke"/>
          <rect x="48" y="96" width="64" height="48" fill="none" stroke="#f1f5f9" vector-effect="non-scaling-stroke"/>
          <rect x="144" y="96" width="64" height="48" fill="none" stroke="#f1f5f9" vector-effect="non-scaling-stroke"/>
        </g>
      </g>
    </g>
  </g>
</svg>
