<?xml version='1.0' encoding='utf-8'?>
<svg xmlns="http://www.w3.org/2000/svg" width="1920" height="1080" viewBox="0 0 1920 1080" data-theme="dark">
  <style>
        @font-face {
            font-family: 'Inter';
            src: url('assets/fonts/Inter-Regular.ttf') format('truetype');
            font-weight: 400;
            font-style: normal;
            font-display: swap;
        }
        @font-face {
            font-family: 'Inter';
            src: url('assets/fonts/Inter-Bold.ttf') format('truetype');
            font-weight: 600;
            font-style: normal;
            font-display: swap;
        }
        @font-face {
            font-family: 'Inter';
            src: url('assets/fonts/Inter-Bold.ttf') format('truetype');
            font-weight: 800;
            font-style: normal;
            font-display: swap;
        }
        
:root {
    --background: #0f172a;
    --panel: #1e293b;
    --primary-text: #f1f5f9;
    --muted-text: #94a3b8;
    --inverse-text: #0f172a;
    --border: #334155;
    --shadow-color: #000000;
    --icon-pad-bg: #1e293b;
    --art-glow: #7dd3fc;
    --art-glow-opacity: 0.18;
    --art-sheen: #ffffff;
    --art-sheen-opacity: 0.18;
    --art-shadow: #000000;
    --art-shadow-opacity: 0.28;
    --art-muted-line: #64748b;
    --art-panel-tint: #1e293b;
    --font-family: 'Inter', 'Segoe UI', 'Kalam', Roboto, Helvetica, Arial, sans-serif;
    --radius-xl: 16px;
    --font-family-headline: 'Inter', 'Segoe UI', 'Kalam', Roboto, Helvetica, Arial, sans-serif;
    --font-family-body: 'Inter', 'Segoe UI', 'Kalam', Roboto, Helvetica, Arial, sans-serif;
    --font-heading: 'Inter', 'Segoe UI', 'Kalam', Roboto, Helvetica, Arial, sans-serif;
    --font-body: 'Inter', 'Segoe UI', 'Kalam', Roboto, Helvetica, Arial, sans-serif;
    --font-size-h1: 56px;
    --font-size-h2: 40px;
    --font-size-h3: 28px;
    --font-size-body: 24px;
    --font-size-caption: 18px;
    --secondary-text: var(--muted-text);
    --panel-border: var(--border);
    --font-weight-normal: 400;
    --font-weight-medium: 500;
    --font-weight-semibold: 600;
    --font-weight-bold: 700;
    --spacing-gutter-pct: 0.07;
    --spacing-top-pct: 0.15;
    --spacing-bottom-pct: 0.07;
    --spacing-title-y-pct: 0.055;
    --accent-1: #22d3ee;
    --accent-2: #f472b6;
    --accent-3: #facc15;
    --accent-4: #a3e635;
    --accent-5: #fb923c;
    --accent-6: #c084fc;
}
:root[data-theme="dark"] {
    --background: #0f172a;
    --panel: #1e293b;
    --primary-text: #f1f5f9;
    --muted-text: #94a3b8;
    --inverse-text: #0f172a;
    --border: #334155;
    --shadow-color: #000000;
    --icon-pad-bg: #1e293b;
    --art-glow: #7dd3fc;
    --art-glow-opacity: 0.18;
    --art-sheen: #ffffff;
    --art-sheen-opacity: 0.18;
    --art-shadow: #000000;
    --art-shadow-opacity: 0.28;
    --art-muted-line: #64748b;
    --art-panel-tint: #1e293b;
    --accent-1: #22d3ee;
    --accent-2: #f472b6;
    --accent-3: #facc15;
    --accent-4: #a3e635;
    --accent-5: #fb923c;
    --accent-6: #c084fc;
}
:root[data-theme="light"] {
    --background: #f8fafc;
    --panel: #ffffff;
    --primary-text: #0f172a;
    --muted-text: #64748b;
    --inverse-text: #ffffff;
    --border: #e2e8f0;
    --shadow-color: #000000;
    --icon-pad-bg: #1e293b;
    --art-glow: #0891b2;
    --art-glow-opacity: 0.10;
    --art-sheen: #ffffff;
    --art-sheen-opacity: 0.34;
    --art-shadow: #0f172a;
    --art-shadow-opacity: 0.14;
    --art-muted-line: #94a3b8;
    --art-panel-tint: #f1f5f9;
    --accent-1: #0891b2;
    --accent-2: #db2777;
    --accent-3: #ca8a04;
    --accent-4: #65a30d;
    --accent-5: #ea580c;
    --accent-6: #9333ea;
}</style>
  <rect x="0" y="0" width="1.92E+3" height="1.08E+3" fill="#252a34" stroke="none" id="programmatic_background"/>
  <line id="HEADER_DECOR" x1="960.0" x2="1080.0" y1="135.0" y2="135.0" stroke="var(--accent-1)" stroke-width="6" stroke-linecap="round"/>
  <defs>
    <pattern id="svg7a472fd0-napkin-hatch" patternUnits="userSpaceOnUse" width="12" height="12">
      <path d="M -3 12 L 12 -3 M 0 15 L 15 0" fill="none" stroke="var(--primary-text)" stroke-width="1" stroke-opacity="0.05"/>
    </pattern>
    <filter id="svg7a472fd0-shadow" x="-30%" y="-30%" width="160%" height="160%">
      <feDropShadow dx="0" dy="2" stdDeviation="3" flood-color="#000000" flood-opacity="0.08"/>
      <feDropShadow dx="0" dy="6" stdDeviation="10" flood-color="#000000" flood-opacity="0.12"/>
    </filter>
    <radialGradient id="svg7a472fd0-universal-edge-vignette" cx="50%" cy="50%" r="72%">
      <stop offset="0%" stop-color="var(--background)" stop-opacity="0"/>
      <stop offset="72%" stop-color="var(--background)" stop-opacity="0.12"/>
      <stop offset="100%" stop-color="var(--primary-text)" stop-opacity="0.08"/>
    </radialGradient>
    <linearGradient id="svg7a472fd0-universal-surface-sheen" x1="0%" y1="0%" x2="100%" y2="100%">
      <stop offset="0%" stop-color="var(--art-sheen)" stop-opacity="var(--art-sheen-opacity)"/>
      <stop offset="46%" stop-color="var(--art-sheen)" stop-opacity="0.035"/>
      <stop offset="100%" stop-color="var(--art-panel-tint)" stop-opacity="0.14"/>
    </linearGradient>
    <radialGradient id="svg7a472fd0-universal-icon-aura" cx="50%" cy="42%" r="64%">
      <stop offset="0%" stop-color="var(--art-glow)" stop-opacity="var(--art-glow-opacity)"/>
      <stop offset="100%" stop-color="var(--background)" stop-opacity="0"/>
    </radialGradient>
    <filter id="svg7a472fd0-text-glow" x="-20%" y="-20%" width="140%" height="140%">
      <feDropShadow dx="0" dy="0" stdDeviation="2" flood-color="#000000" flood-opacity="0.4"/>
    </filter>
    <marker id="svg7a472fd0-arrowhead" markerWidth="10" markerHeight="7" refX="9" refY="3.5" orient="auto" markerUnits="strokeWidth">
      <polygon points="0 0, 10 3.5, 0 7" fill="var(--muted-text)" opacity="0.6"/>
    </marker>
  </defs>
  <rect width="100%" height="100%" fill="var(--background)" id="CANVAS_BG"/>
  <rect width="100%" height="100%" fill="url(#svg7a472fd0-napkin-hatch)"/>
  <rect id="UNIVERSAL_EDGE_VIGNETTE" width="100%" height="100%" fill="url(#svg7a472fd0-universal-edge-vignette)" opacity="0.62"/>
  <text id="TITLE" x="960.0" y="59" text-anchor="middle" font-weight="800" font-size="56" fill="#f1f5f9" style="font-size: 60px; font-family: Inter, Segoe UI, Kalam, Roboto, Helvetica, Arial, sans-serif; font-weight: 700; letter-spacing:-1.2px;" data-final-font-size="60">
    <tspan x="960.0" dy="68.00px">Project Blue Book Closure</tspan>
  </text>
  <rect id="TITLE_FRAME" x="134" y="28" width="1652" height="88" fill="none"/>
  <g transform="translate(960, 590)">
    <circle r="178" fill="var(--panel)" fill-opacity="0.72" stroke="var(--muted-text)" stroke-width="3" stroke-dasharray="12 6" opacity="0.75"/>
    <circle id="CENTER_PAD" r="116" fill="var(--icon-pad-bg)" stroke="none" opacity="0.96"/>
    <g id="CENTER_ICON" transform="translate(-70, -70)" data-icon-size="140" stroke-dasharray="8 5">
      <g transform="translate(-33.40571428571429,-33.4057142857143) scale(6.4628571428571435)">
        <path d="M18.6992 4.62713L20.9469 8.93616C21.288 9.57602 21.9102 10.0259 22.6326 10.1259L27.3788 10.7758C29.9175 11.1257 30.9008 14.255 29.0244 15.9946L25.7733 18.9939C25.2114 19.5138 24.9505 20.2836 25.091 21.0334L25.8837 25.4324C26.3252 27.8819 23.7765 29.7915 21.5389 28.6717L17.0034 26.4222C16.3713 26.1123 15.6287 26.1123 14.9966 26.4222L10.4611 28.6717C8.22347 29.7815 5.67477 27.8819 6.11628 25.4324L6.90898 21.0334C7.04946 20.2836 6.78857 19.5138 6.22665 18.9939L2.97556 15.9946C1.09916 14.265 2.08251 11.1257 4.62118 10.7758L9.36737 10.1259C10.0898 10.0259 10.722 9.58601 11.0531 8.93616L13.3008 4.62713C14.4447 2.45762 17.5653 2.45762 18.6992 4.62713Z" fill="#FCD53F"/>
      </g>
    </g>
    <circle r="90" fill="none" stroke="var(--primary-text)" stroke-width="3" stroke-dasharray="8 5" opacity="0.8"/>
    <text id="CENTER_LABEL" x="0" y="12" text-anchor="middle" font-weight="800" font-size="34" fill="var(--primary-text)" display="none">SUBJECT</text>
  </g>
  <g transform="translate(400, 420)">
    <line x1="62" y1="32" x2="360" y2="150" stroke="var(--accent-1)" stroke-width="4.5" stroke-dasharray="6 6" opacity="0.75"/>
    <circle cx="360" cy="150" r="7" fill="var(--accent-1)"/>
    <circle id="ITEM_1_PAD" r="56" fill="var(--icon-pad-bg)" stroke="var(--primary-text)" opacity="0.95" fill-opacity="0.9" stroke-width="2"/>
    <circle id="ITEM_1_PAD_INNER" cx="0" cy="0" r="43.68" fill="var(--accent-3)" fill-opacity="0.22"/>
    <circle id="ITEM_1_NODE" r="46" fill="none" stroke="var(--accent-1)" stroke-width="3" stroke-dasharray="6 4" filter="url(#svg7a472fd0-shadow)"/>
    <rect id="ITEM_1_TEXT_BG" x="-382" y="-78" width="302" height="172" rx="24" fill="var(--panel)" fill-opacity="0.96" filter="url(#svg7a472fd0-shadow)" stroke="none"/>
    <text id="ITEM_1_HEAD" x="-110.0" y="-48.0" text-anchor="end" font-weight="bold" font-size="30" fill="var(--accent-3)" data-bg-id="ITEM_1_TEXT_BG" fill-opacity="1.0" stroke="none" style="font-size: 30px; font-family: Inter, Segoe UI, Kalam, Roboto, Helvetica, Arial, sans-serif; font-weight: 700; letter-spacing:-0.4px;" data-final-font-size="30">
      <tspan x="-110.0" dy="30.25px">Study Ends</tspan>
    </text>
    <rect id="ITEM_1_HEAD_FRAME" x="-318" y="-48" width="208" height="44" fill="none"/>
    <text id="ITEM_1_BODY" x="-110.0" y="-2.0" text-anchor="end" font-size="20" fill="var(--primary-text)" data-bg-id="ITEM_1_TEXT_BG" style="font-size: 26px; font-family: Inter, Segoe UI, Kalam, Roboto, Helvetica, Arial, sans-serif; font-weight: 400;" data-final-font-size="26">
      <tspan x="-110.0" dy="23.66px">Colorado study</tspan>
      <tspan x="-110.0" dy="29.90px">showed no national</tspan>
      <tspan x="-110.0" dy="29.90px">threat</tspan>
    </text>
    <rect id="ITEM_1_BODY_FRAME" x="-352" y="-2" width="242" height="104" fill="none"/>
    <g id="ITEM_1_ICON" transform="translate(-33, -33)" data-icon-size="66" stroke-dasharray="6 4">
      <g transform="translate(-16.92,-17.31) scale(3.12)">
        <path d="M4.71839 18.0233C5.11525 17.458 5.8952 17.3215 6.46045 17.7184L18.5318 26.1936L17.0946 28.2406L5.02328 19.7653C4.45803 19.3685 4.32152 18.5885 4.71839 18.0233Z" fill="#5092FF"/>
        <path d="M18.5013 2.80347C18.8302 2.3598 19.4615 2.25982 19.9114 2.58017L21.5841 3.77124C22.034 4.09158 22.1321 4.71094 21.8032 5.15461L13.1102 16.8809C12.4436 17.7801 11.1641 17.9827 10.2523 17.3335C9.34053 16.6842 9.14176 15.429 9.80835 14.5298L18.5013 2.80347Z" fill="#636363"/>
        <path d="M18.0472 3.66594C16.8384 3.31432 15.3804 3.86071 14.5971 4.91739L11.7749 8.7243L11.9999 10.0001L10.6024 10.306L10.3989 10.5805C9.07399 12.3677 9.47824 14.8692 11.3018 16.1677C13.1254 17.4662 15.6778 17.07 17.0027 15.2828L17.1623 15.0675L16.9999 13.5001H18.3242L18.4883 13.2787C21.992 13.9302 23.8684 16.851 23.963 19.8545C24.0149 21.5041 23.5209 23.1307 22.4806 24.3899C21.4537 25.6329 19.8112 26.6185 17.3793 26.8486C16.5451 26.9276 15.9304 27.6956 16.0062 28.564C16.082 29.4325 16.8197 30.0725 17.6539 29.9935C20.7829 29.6974 23.1847 28.3804 24.7802 26.4491C26.3624 24.5339 27.069 22.1145 26.9946 19.751C26.8719 15.8564 24.6058 11.9837 20.5048 10.5586L21.2008 9.61967C21.9842 8.56299 22.0639 7.03517 21.3491 6.01708L18.0472 3.66594Z" fill="#BEBEBE"/>
        <path d="M2 29.2C2 27.4327 3.43269 26 5.2 26H26.8C28.5673 26 30 27.4327 30 29.2C30 29.6418 29.6418 30 29.2 30H2.8C2.35817 30 2 29.6418 2 29.2Z" fill="#9B9B9B"/>
        <path d="M11.7757 8.70947L18.3343 13.4746L17.1588 15.0927L10.6001 10.3275L11.7757 8.70947Z" fill="#D3D3D3"/>
      </g>
    </g>
  </g>
  <g transform="translate(960, 348)">
    <line x1="0" y1="76" x2="0" y2="208" stroke="var(--accent-2)" stroke-width="4.5" stroke-dasharray="6 6" opacity="0.75"/>
    <circle cx="0" cy="208" r="7" fill="var(--accent-2)"/>
    <circle id="ITEM_2_PAD" r="56" fill="var(--icon-pad-bg)" stroke="var(--primary-text)" opacity="0.95" fill-opacity="0.9" stroke-width="2"/>
    <circle id="ITEM_2_PAD_INNER" cx="0" cy="0" r="43.68" fill="var(--accent-4)" fill-opacity="0.22"/>
    <circle id="ITEM_2_NODE" r="46" fill="none" stroke="var(--accent-2)" stroke-width="3" stroke-dasharray="6 4" filter="url(#svg7a472fd0-shadow)"/>
    <rect id="ITEM_2_TEXT_BG" x="-210" y="-178" width="420" height="124" rx="24" fill="var(--panel)" fill-opacity="0.96" filter="url(#svg7a472fd0-shadow)" stroke="none"/>
    <text id="ITEM_2_HEAD" x="0.0" y="-154.0" text-anchor="middle" font-weight="bold" font-size="30" fill="var(--accent-4)" data-bg-id="ITEM_2_TEXT_BG" fill-opacity="1.0" stroke="none" style="font-size: 30px; font-family: Inter, Segoe UI, Kalam, Roboto, Helvetica, Arial, sans-serif; font-weight: 700; letter-spacing:-0.4px;" data-final-font-size="30">
      <tspan x="0.0" dy="28.25px">Scientific Review</tspan>
    </text>
    <rect id="ITEM_2_HEAD_FRAME" x="-150" y="-154" width="300" height="40" fill="none"/>
    <text id="ITEM_2_BODY" x="0.0" y="-112.0" text-anchor="middle" font-size="20" fill="var(--primary-text)" data-bg-id="ITEM_2_TEXT_BG" style="font-size: 26px; font-family: Inter, Segoe UI, Kalam, Roboto, Helvetica, Arial, sans-serif; font-weight: 400;" data-final-font-size="26">
      <tspan x="0.0" dy="22.44px">NAS review deemed studies</tspan>
      <tspan x="0.0" dy="29.90px">unfruitful</tspan>
    </text>
    <rect id="ITEM_2_BODY_FRAME" x="-184" y="-112" width="368" height="68" fill="none"/>
    <g id="ITEM_2_ICON" transform="translate(-33, -33)" data-icon-size="66" stroke-dasharray="6 4">
      <g transform="translate(-14.381694915254238,-14.381694915254236) scale(3.9484745762711864)" vector-effect="non-scaling-stroke" stroke-width="2.50" stroke-linecap="round" stroke-linejoin="round" stroke-opacity="1.0">
        <path d="M4 19.5v-15A2.5 2.5 0 0 1 6.5 2H19a1 1 0 0 1 1 1v18a1 1 0 0 1-1 1H6.5a1 1 0 0 1 0-5H20" vector-effect="non-scaling-stroke" fill="none" stroke="#f1f5f9"/>
      </g>
    </g>
  </g>
  <g transform="translate(1520, 420)">
    <line x1="-62" y1="32" x2="-360" y2="150" stroke="var(--accent-3)" stroke-width="4.5" stroke-dasharray="6 6" opacity="0.75"/>
    <circle cx="-360" cy="150" r="7" fill="var(--accent-3)"/>
    <circle id="ITEM_3_PAD" r="56" fill="var(--icon-pad-bg)" stroke="var(--primary-text)" opacity="0.95" fill-opacity="0.9" stroke-width="2"/>
    <circle id="ITEM_3_PAD_INNER" cx="0" cy="0" r="43.68" fill="var(--accent-5)" fill-opacity="0.22"/>
    <circle id="ITEM_3_NODE" r="46" fill="none" stroke="var(--accent-3)" stroke-width="3" stroke-dasharray="6 4" filter="url(#svg7a472fd0-shadow)"/>
    <rect id="ITEM_3_TEXT_BG" x="80" y="-78" width="302" height="172" rx="24" fill="var(--panel)" fill-opacity="0.96" filter="url(#svg7a472fd0-shadow)" stroke="none"/>
    <text id="ITEM_3_HEAD" x="110.0" y="-48.0" text-anchor="start" font-weight="bold" font-size="30" fill="var(--accent-5)" data-bg-id="ITEM_3_TEXT_BG" fill-opacity="1.0" stroke="none" style="font-size: 30px; font-family: Inter, Segoe UI, Kalam, Roboto, Helvetica, Arial, sans-serif; font-weight: 700; letter-spacing:-0.4px;" data-final-font-size="30">
      <tspan x="110.0" dy="30.25px">Program Stop</tspan>
    </text>
    <rect id="ITEM_3_HEAD_FRAME" x="110" y="-48" width="208" height="44" fill="none"/>
    <text id="ITEM_3_BODY" x="110.0" y="-2.0" text-anchor="start" font-size="20" fill="var(--primary-text)" data-bg-id="ITEM_3_TEXT_BG" style="font-size: 26px; font-family: Inter, Segoe UI, Kalam, Roboto, Helvetica, Arial, sans-serif; font-weight: 400;" data-final-font-size="26">
      <tspan x="110.0" dy="29.64px">Air Force ended</tspan>
      <tspan x="110.0" dy="29.90px">investigation 1969</tspan>
    </text>
    <rect id="ITEM_3_BODY_FRAME" x="110" y="-2" width="242" height="104" fill="none"/>
    <g id="ITEM_3_ICON" transform="translate(-33, -33)" data-icon-size="66" stroke-dasharray="6 4">
      <g transform="translate(-14.381694915254236,-14.381694915254236) scale(3.9484745762711864)" vector-effect="non-scaling-stroke" stroke-width="2.50" stroke-linecap="round" stroke-linejoin="round" stroke-opacity="1.0">
        <path d="M12 6v6l4 2" vector-effect="non-scaling-stroke" fill="none" stroke="#f1f5f9"/>
        <circle cx="12" cy="12" r="10" vector-effect="non-scaling-stroke" fill="none" stroke="#f1f5f9"/>
      </g>
    </g>
  </g>
  <g transform="translate(430, 770)">
    <line x1="62" y1="-32" x2="360" y2="-150" stroke="var(--accent-4)" stroke-width="4.5" stroke-dasharray="6 6" opacity="0.75"/>
    <circle cx="360" cy="-150" r="7" fill="var(--accent-4)"/>
    <circle id="ITEM_4_PAD" r="56" fill="var(--icon-pad-bg)" stroke="var(--primary-text)" opacity="0.95" fill-opacity="0.9" stroke-width="2"/>
    <circle id="ITEM_4_PAD_INNER" cx="0" cy="0" r="43.68" fill="var(--accent-6)" fill-opacity="0.22"/>
    <circle id="ITEM_4_NODE" r="46" fill="none" stroke="var(--accent-4)" stroke-width="3" stroke-dasharray="6 4" filter="url(#svg7a472fd0-shadow)"/>
    <rect id="ITEM_4_TEXT_BG" x="-382" y="-78" width="302" height="172" rx="24" fill="var(--panel)" fill-opacity="0.96" filter="url(#svg7a472fd0-shadow)" stroke="none"/>
    <text id="ITEM_4_HEAD" x="-110.0" y="-48.0" text-anchor="end" font-weight="bold" font-size="30" fill="var(--accent-6)" data-bg-id="ITEM_4_TEXT_BG" fill-opacity="1.0" stroke="none" style="font-size: 30px; font-family: Inter, Segoe UI, Kalam, Roboto, Helvetica, Arial, sans-serif; font-weight: 700; letter-spacing:-0.4px;" data-final-font-size="30">
      <tspan x="-110.0" dy="30.25px">Public Release</tspan>
    </text>
    <rect id="ITEM_4_HEAD_FRAME" x="-318" y="-48" width="208" height="44" fill="none"/>
    <text id="ITEM_4_BODY" x="-110.0" y="-2.0" text-anchor="end" font-size="20" fill="var(--primary-text)" data-bg-id="ITEM_4_TEXT_BG" style="font-size: 26px; font-family: Inter, Segoe UI, Kalam, Roboto, Helvetica, Arial, sans-serif; font-weight: 400;" data-final-font-size="26">
      <tspan x="-110.0" dy="23.66px">Statistics released</tspan>
      <tspan x="-110.0" dy="29.90px">through Air Force</tspan>
      <tspan x="-110.0" dy="29.90px">channels</tspan>
    </text>
    <rect id="ITEM_4_BODY_FRAME" x="-352" y="-2" width="242" height="104" fill="none"/>
    <g id="ITEM_4_ICON" transform="translate(-33, -33)" data-icon-size="66" stroke-dasharray="6 4">
      <g transform="translate(-16.92,-16.14) scale(3.12)">
        <path d="M25.0642 23.4047L23.9155 20.598L22.2011 21.2996L23.3511 24.1097L23.3525 24.113C23.5183 24.5137 23.3281 24.9545 22.9426 25.1096L18.0368 27.1219L18.0342 27.123C17.6335 27.2888 17.1927 27.0987 17.0376 26.7132L15.8855 23.898L14.1711 24.5997L15.3202 27.4074C15.8659 28.7594 17.403 29.3881 18.741 28.8353L18.7425 28.8347L23.6372 26.8268C24.9889 26.281 25.6173 24.7444 25.065 23.4066L25.0642 23.4047ZM8 23.5L9.70824 26.7789C10.3282 27.4289 10.2982 28.4589 9.63824 29.0689C8.98824 29.6789 7.95824 29.6489 7.34824 28.9989L2.43824 23.7889C1.82824 23.1389 1.85824 22.1089 2.50824 21.4989C3.15824 20.8889 4.18824 20.9189 4.79824 21.5689L8 23.5Z" fill="#FFB02E"/>
        <path d="M29.2283 15.0788L17.6783 2.82884C16.4083 1.47884 14.1783 1.82887 13.3883 3.50887L4.79834 21.5689L9.76834 26.8389L28.3083 19.3288C30.0183 18.6388 30.4983 16.4288 29.2283 15.0788Z" fill="#F9C23C"/>
      </g>
    </g>
  </g>
  <g transform="translate(1490, 770)">
    <line x1="-62" y1="-32" x2="-360" y2="-150" stroke="var(--accent-5)" stroke-width="4.5" stroke-dasharray="6 6" opacity="0.75"/>
    <circle cx="-360" cy="-150" r="7" fill="var(--accent-5)"/>
    <circle id="ITEM_5_PAD" r="56" fill="var(--icon-pad-bg)" stroke="var(--primary-text)" opacity="0.95" fill-opacity="0.9" stroke-width="2"/>
    <circle id="ITEM_5_PAD_INNER" cx="0" cy="0" r="43.68" fill="var(--accent-1)" fill-opacity="0.22"/>
    <circle id="ITEM_5_NODE" r="46" fill="none" stroke="var(--accent-5)" stroke-width="3" stroke-dasharray="6 4" filter="url(#svg7a472fd0-shadow)"/>
    <rect id="ITEM_5_TEXT_BG" x="80" y="-78" width="302" height="172" rx="24" fill="var(--panel)" fill-opacity="0.96" filter="url(#svg7a472fd0-shadow)" stroke="none"/>
    <text id="ITEM_5_HEAD" x="110.0" y="-48.0" text-anchor="start" font-weight="bold" font-size="30" fill="var(--accent-1)" data-bg-id="ITEM_5_TEXT_BG" fill-opacity="1.0" stroke="none" style="font-size: 30px; font-family: Inter, Segoe UI, Kalam, Roboto, Helvetica, Arial, sans-serif; font-weight: 700; letter-spacing:-0.4px;" data-final-font-size="30">
      <tspan x="110.0" dy="30.25px">Archive Move</tspan>
    </text>
    <rect id="ITEM_5_HEAD_FRAME" x="110" y="-48" width="208" height="44" fill="none"/>
    <text id="ITEM_5_BODY" x="110.0" y="-2.0" text-anchor="start" font-size="20" fill="var(--primary-text)" data-bg-id="ITEM_5_TEXT_BG" style="font-size: 26px; font-family: Inter, Segoe UI, Kalam, Roboto, Helvetica, Arial, sans-serif; font-weight: 400;" data-final-font-size="26">
      <tspan x="110.0" dy="23.66px">Records shifted to</tspan>
      <tspan x="110.0" dy="29.90px">National Archives</tspan>
      <tspan x="110.0" dy="29.90px">storage</tspan>
    </text>
    <rect id="ITEM_5_BODY_FRAME" x="110" y="-2" width="242" height="104" fill="none"/>
    <g id="ITEM_5_ICON" transform="translate(-33, -33)" data-icon-size="66" stroke-dasharray="6 4">
      <g transform="translate(-10.68,-10.680000000000003) scale(6.24)" vector-effect="non-scaling-stroke" stroke-width="2.50" stroke-linecap="round" stroke-linejoin="round" stroke-opacity="1.0">
        <path id="Vector" fill="none" d="M1.5 5h11v7c0 0.2652 -0.1054 0.5196 -0.2929 0.7071S11.7652 13 11.5 13h-9c-0.26522 0 -0.51957 -0.1054 -0.70711 -0.2929C1.60536 12.5196 1.5 12.2652 1.5 12V5Z" vector-effect="non-scaling-stroke" stroke="#f1f5f9"/>
        <path id="Vector_2" fill="none" d="M13.5 4V2c0 -0.55228 -0.4477 -1 -1 -1l-11 0c-0.552285 0 -1 0.44772 -1 1v2c0 0.55228 0.447715 1 1 1l11 0c0.5523 0 1 -0.44772 1 -1Z" vector-effect="non-scaling-stroke" stroke="#f1f5f9"/>
        <path id="Vector_3" stroke="#f1f5f9" d="M1.5 5h11v7c0 0.2652 -0.1054 0.5196 -0.2929 0.7071S11.7652 13 11.5 13h-9c-0.26522 0 -0.51957 -0.1054 -0.70711 -0.2929C1.60536 12.5196 1.5 12.2652 1.5 12V5v0Z" vector-effect="non-scaling-stroke" fill="none"/>
        <path id="Vector_4" stroke="#f1f5f9" d="M13.5 4V2c0 -0.55228 -0.4477 -1 -1 -1l-11 0c-0.552285 0 -1 0.44772 -1 1v2c0 0.55228 0.447715 1 1 1l11 0c0.5523 0 1 -0.44772 1 -1Z" vector-effect="non-scaling-stroke" fill="none"/>
        <path id="Vector_5" stroke="#f1f5f9" d="M5.5 8h3" vector-effect="non-scaling-stroke" fill="none"/>
      </g>
    </g>
  </g>
</svg>
