<?xml version='1.0' encoding='utf-8'?>
<svg xmlns="http://www.w3.org/2000/svg" width="1920" height="1080" viewBox="0 0 1920 1080" data-theme="dark">
  <style>
        @font-face {
            font-family: 'Inter';
            src: url('assets/fonts/Inter-Regular.ttf') format('truetype');
            font-weight: 400;
            font-style: normal;
            font-display: swap;
        }
        @font-face {
            font-family: 'Inter';
            src: url('assets/fonts/Inter-Bold.ttf') format('truetype');
            font-weight: 600;
            font-style: normal;
            font-display: swap;
        }
        @font-face {
            font-family: 'Inter';
            src: url('assets/fonts/Inter-Bold.ttf') format('truetype');
            font-weight: 800;
            font-style: normal;
            font-display: swap;
        }
        
:root {
    --background: #0f172a;
    --panel: #1e293b;
    --primary-text: #f1f5f9;
    --muted-text: #94a3b8;
    --inverse-text: #0f172a;
    --border: #334155;
    --shadow-color: #000000;
    --icon-pad-bg: #1e293b;
    --art-glow: #7dd3fc;
    --art-glow-opacity: 0.18;
    --art-sheen: #ffffff;
    --art-sheen-opacity: 0.18;
    --art-shadow: #000000;
    --art-shadow-opacity: 0.28;
    --art-muted-line: #64748b;
    --art-panel-tint: #1e293b;
    --font-family: 'Inter', 'Segoe UI', 'Kalam', Roboto, Helvetica, Arial, sans-serif;
    --radius-xl: 16px;
    --font-family-headline: 'Inter', 'Segoe UI', 'Kalam', Roboto, Helvetica, Arial, sans-serif;
    --font-family-body: 'Inter', 'Segoe UI', 'Kalam', Roboto, Helvetica, Arial, sans-serif;
    --font-heading: 'Inter', 'Segoe UI', 'Kalam', Roboto, Helvetica, Arial, sans-serif;
    --font-body: 'Inter', 'Segoe UI', 'Kalam', Roboto, Helvetica, Arial, sans-serif;
    --font-size-h1: 56px;
    --font-size-h2: 40px;
    --font-size-h3: 28px;
    --font-size-body: 24px;
    --font-size-caption: 18px;
    --secondary-text: var(--muted-text);
    --panel-border: var(--border);
    --font-weight-normal: 400;
    --font-weight-medium: 500;
    --font-weight-semibold: 600;
    --font-weight-bold: 700;
    --spacing-gutter-pct: 0.07;
    --spacing-top-pct: 0.15;
    --spacing-bottom-pct: 0.07;
    --spacing-title-y-pct: 0.055;
    --accent-1: #60a5fa;
    --accent-2: #4ade80;
    --accent-3: #f97316;
    --accent-4: #a78bfa;
    --accent-5: #38bdf8;
    --accent-6: #94a3b8;
}
:root[data-theme="dark"] {
    --background: #0f172a;
    --panel: #1e293b;
    --primary-text: #f1f5f9;
    --muted-text: #94a3b8;
    --inverse-text: #0f172a;
    --border: #334155;
    --shadow-color: #000000;
    --icon-pad-bg: #1e293b;
    --art-glow: #7dd3fc;
    --art-glow-opacity: 0.18;
    --art-sheen: #ffffff;
    --art-sheen-opacity: 0.18;
    --art-shadow: #000000;
    --art-shadow-opacity: 0.28;
    --art-muted-line: #64748b;
    --art-panel-tint: #1e293b;
    --accent-1: #60a5fa;
    --accent-2: #4ade80;
    --accent-3: #f97316;
    --accent-4: #a78bfa;
    --accent-5: #38bdf8;
    --accent-6: #94a3b8;
}
:root[data-theme="light"] {
    --background: #f8fafc;
    --panel: #ffffff;
    --primary-text: #0f172a;
    --muted-text: #64748b;
    --inverse-text: #ffffff;
    --border: #e2e8f0;
    --shadow-color: #000000;
    --icon-pad-bg: #1e293b;
    --art-glow: #0891b2;
    --art-glow-opacity: 0.10;
    --art-sheen: #ffffff;
    --art-sheen-opacity: 0.34;
    --art-shadow: #0f172a;
    --art-shadow-opacity: 0.14;
    --art-muted-line: #94a3b8;
    --art-panel-tint: #f1f5f9;
    --accent-1: #2563eb;
    --accent-2: #16a34a;
    --accent-3: #ea580c;
    --accent-4: #7c3aed;
    --accent-5: #0284c7;
    --accent-6: #475569;
}</style>
  <rect x="0" y="0" width="1.92E+3" height="1.08E+3" fill="#252a34" stroke="none" id="programmatic_background"/>
  <line id="HEADER_DECOR" x1="960.0" x2="1080.0" y1="135.0" y2="135.0" stroke="var(--accent-1)" stroke-width="6" stroke-linecap="round"/>
  <defs>
    <pattern id="svg1722e33c-napkin-hatch" patternUnits="userSpaceOnUse" width="12" height="12">
      <path d="M -3 12 L 12 -3 M 0 15 L 15 0" fill="none" stroke="var(--primary-text)" stroke-width="1" stroke-opacity="0.05"/>
    </pattern>
    <filter id="svg1722e33c-shadow" x="-30%" y="-30%" width="160%" height="160%">
      <feDropShadow dx="0" dy="2" stdDeviation="3" flood-color="#000000" flood-opacity="0.08"/>
      <feDropShadow dx="0" dy="6" stdDeviation="10" flood-color="#000000" flood-opacity="0.12"/>
    </filter>
    <marker id="svg1722e33c-arrowhead" markerWidth="10" markerHeight="10" refX="9" refY="5" orient="auto">
      <path d="M 0 0 L 10 5 L 0 10 Z" fill="var(--accent-1)"/>
    </marker>
    <filter id="svg1722e33c-text-glow" x="-20%" y="-20%" width="140%" height="140%">
      <feDropShadow dx="0" dy="0" stdDeviation="2" flood-color="#000000" flood-opacity="0.4"/>
    </filter>
    <radialGradient id="svg1722e33c-universal-edge-vignette" cx="50%" cy="50%" r="72%">
      <stop offset="0%" stop-color="var(--background)" stop-opacity="0"/>
      <stop offset="72%" stop-color="var(--background)" stop-opacity="0.12"/>
      <stop offset="100%" stop-color="var(--primary-text)" stop-opacity="0.08"/>
    </radialGradient>
    <linearGradient id="svg1722e33c-universal-surface-sheen" x1="0%" y1="0%" x2="100%" y2="100%">
      <stop offset="0%" stop-color="var(--art-sheen)" stop-opacity="var(--art-sheen-opacity)"/>
      <stop offset="46%" stop-color="var(--art-sheen)" stop-opacity="0.035"/>
      <stop offset="100%" stop-color="var(--art-panel-tint)" stop-opacity="0.14"/>
    </linearGradient>
    <radialGradient id="svg1722e33c-universal-icon-aura" cx="50%" cy="42%" r="64%">
      <stop offset="0%" stop-color="var(--art-glow)" stop-opacity="var(--art-glow-opacity)"/>
      <stop offset="100%" stop-color="var(--background)" stop-opacity="0"/>
    </radialGradient>
    <linearGradient id="svg1722e33c-myth-card-sheen" x1="0%" y1="0%" x2="100%" y2="100%">
      <stop offset="0%" stop-color="var(--inverse-text)" stop-opacity="0.18"/>
      <stop offset="56%" stop-color="var(--inverse-text)" stop-opacity="0.03"/>
      <stop offset="100%" stop-color="var(--background)" stop-opacity="0.12"/>
    </linearGradient>
  </defs>
  <rect width="100%" height="100%" fill="var(--background)" id="CANVAS_BG"/>
  <rect width="100%" height="100%" fill="url(#svg1722e33c-napkin-hatch)"/>
  <rect id="UNIVERSAL_EDGE_VIGNETTE" width="100%" height="100%" fill="url(#svg1722e33c-universal-edge-vignette)" opacity="0.62"/>
  <text id="TITLE" x="960.0" y="59" text-anchor="middle" font-weight="800" font-size="56" fill="#f1f5f9" style="font-size: 60px; font-family: Inter, Segoe UI, Kalam, Roboto, Helvetica, Arial, sans-serif; font-weight: 700; letter-spacing:-1.2px;" data-final-font-size="60">
    <tspan x="960.0" dy="68.00px">UFO vs Drone Reality</tspan>
  </text>
  <rect id="TITLE_FRAME" x="134" y="59" width="1652" height="103" fill="none"/>
  <g transform="translate(0, 190) scale(1.0)">
    <path d="M 920 -8 C 950 80 950 720 920 808" stroke="var(--primary-text)" stroke-width="2" stroke-opacity="0.10" fill="none"/>
    <path d="M 1000 -8 C 970 80 970 720 1000 808" stroke="var(--primary-text)" stroke-width="2" stroke-opacity="0.10" fill="none"/>
    <text x="480.0" y="0" text-anchor="middle" font-weight="900" font-size="52" fill="var(--accent-1)">MYTHS</text>
    <text x="1440.0" y="0" text-anchor="middle" font-weight="900" font-size="52" fill="var(--accent-2)">REALITY</text>
    <!-- Row 1 - cards at y=130 -->
    <g transform="translate(480.0, 130.0)">
      <rect id="ITEM_1_ACCENT_BG" x="-400" y="-110" width="800" height="245" rx="24" fill="var(--accent-6)" fill-opacity="0.15" stroke="none"/>
      <rect id="ITEM_1_BG" x="-400" y="-110" width="800" height="245" rx="18" fill="var(--panel)" stroke="var(--accent-1)" filter="url(#svg1722e33c-shadow)" stroke-width="3"/>
      <rect x="-388" y="-98" width="776" height="221" rx="16" fill="url(#svg1722e33c-myth-card-sheen)" opacity="0.92"/>
      <circle id="ITEM_1_PAD" cx="-330" cy="-40" r="46" fill="var(--icon-pad-bg)" stroke="var(--background)" stroke-width="2" stroke-opacity="0.65" opacity="0.94" fill-opacity="0.9"/>
      <circle id="ITEM_1_PAD_INNER" cx="-330" cy="-40" r="35.88" fill="var(--accent-6)" fill-opacity="0.22"/>
      <circle cx="-330" cy="-40" r="34" fill="none" stroke="var(--accent-1)" stroke-width="3" stroke-dasharray="6 4"/>
      <g id="ITEM_1_ICON" transform="translate(-358, -68)" data-icon-size="56" stroke-dasharray="6 4">
        <g transform="translate(-13.005714285714289,-13.005714285714289) scale(2.562857142857143)">
          <path d="M29.84 15.92C29.84 23.61 18.92 30 15.92 30C12.92 30 2 23.61 2 15.92C2 8.23 8.23 2 15.92 2C23.61 2 29.84 8.23 29.84 15.92Z" fill="#86D72F"/>
          <path d="M13.3684 24.2248C13.7965 23.8759 14.4264 23.9402 14.7753 24.3684C15.1509 24.8294 15.5995 25.0125 16 25.0125C16.4006 25.0125 16.8491 24.8294 17.2248 24.3684C17.5737 23.9402 18.2036 23.8759 18.6317 24.2248C19.0599 24.5737 19.1241 25.2036 18.7753 25.6317C18.0509 26.5206 17.0495 27.0125 16 27.0125C14.9506 27.0125 13.9491 26.5206 13.2248 25.6317C12.8759 25.2036 12.9402 24.5737 13.3684 24.2248Z" fill="#212121"/>
          <path d="M6.47445 19.5267C8.72837 21.7796 11.0749 23.0757 13.3185 20.8332C15.5725 18.5906 15.5519 14.9284 13.3083 12.6858C11.0646 10.4432 7.41101 10.4329 5.16738 12.6858C2.92375 14.9387 4.22053 17.2738 6.47445 19.5267Z" fill="#533566"/>
          <path d="M25.5247 19.5267C23.27 21.7796 20.9226 23.0757 18.6782 20.8332C16.4338 18.5906 16.4441 14.9284 18.6885 12.6858C20.9329 10.4432 24.5878 10.4329 26.8322 12.6858C29.0766 14.9387 27.7794 17.2738 25.5247 19.5267Z" fill="#533566"/>
          <path d="M12.62 15.62C13.23 15.01 13.09 13.89 12.31 13.11C11.53 12.34 10.41 12.19 9.80002 12.8C9.19002 13.41 9.33002 14.53 10.11 15.31C10.89 16.09 12.01 16.23 12.62 15.62Z" fill="white"/>
          <path d="M25.9 15.62C26.51 15.01 26.37 13.89 25.59 13.11C24.82 12.34 23.69 12.19 23.08 12.8C22.47 13.41 22.61 14.53 23.39 15.31C24.17 16.09 25.29 16.23 25.9 15.62Z" fill="white"/>
        </g>
      </g>
      <text id="ITEM_1_HEAD" x="0.0" y="-85.0" text-anchor="middle" font-weight="bold" font-size="28" fill="var(--accent-6)" data-bg-id="ITEM_1_BG" fill-opacity="1.0" stroke="none" style="font-size: 30px; font-family: Inter, Segoe UI, Kalam, Roboto, Helvetica, Arial, sans-serif; font-weight: 700; letter-spacing:-0.4px;" data-final-font-size="30">
        <tspan x="0.0" dy="33.25px">Myth: Alien Tech</tspan>
      </text>
      <rect id="ITEM_1_HEAD_FRAME" x="-310" y="-85" width="620" height="50" fill="none"/>
      <text id="ITEM_1_BODY" x="0.0" y="-20.0" text-anchor="middle" font-size="22" fill="var(--primary-text)" opacity="0.88" data-bg-id="ITEM_1_BG" style="font-size: 26px; font-family: Inter, Segoe UI, Kalam, Roboto, Helvetica, Arial, sans-serif; font-weight: 400;" data-final-font-size="26">
        <tspan x="0.0" dy="39.84px">Official records frame objects</tspan>
        <tspan x="0.0" dy="29.90px">as human-made drones</tspan>
      </text>
      <rect id="ITEM_1_BODY_FRAME" x="-310" y="-20" width="620" height="155" fill="none"/>
    </g>
    <g transform="translate(1440.0, 130.0)">
      <rect id="ITEM_2_ACCENT_BG" x="-400" y="-110" width="800" height="245" rx="24" fill="var(--accent-2)" fill-opacity="0.15" stroke="none"/>
      <rect id="ITEM_2_BG" x="-400" y="-110" width="800" height="245" rx="18" fill="var(--panel)" stroke="var(--accent-2)" filter="url(#svg1722e33c-shadow)" stroke-width="3"/>
      <rect x="-388" y="-98" width="776" height="221" rx="16" fill="url(#svg1722e33c-myth-card-sheen)" opacity="0.92"/>
      <circle id="ITEM_2_PAD" cx="330" cy="-40" r="46" fill="var(--icon-pad-bg)" stroke="var(--background)" stroke-width="2" stroke-opacity="0.65" opacity="0.94" fill-opacity="0.9"/>
      <circle id="ITEM_2_PAD_INNER" cx="330" cy="-40" r="35.88" fill="var(--accent-2)" fill-opacity="0.22"/>
      <circle cx="330" cy="-40" r="34" fill="none" stroke="var(--accent-2)" stroke-width="3" stroke-dasharray="6 4"/>
      <g id="ITEM_2_ICON" transform="translate(302, -68)" data-icon-size="56" stroke-dasharray="6 4">
        <g transform="translate(-13.00571428571429,-13.005714285714289) scale(2.562857142857143)">
          <path fill-rule="evenodd" clip-rule="evenodd" d="M11.0288 18.7533C11.5295 16.6032 13.5621 15 15.9953 15C18.4284 15 20.4611 16.6032 20.9718 18.7533C21.1019 19.3285 20.7715 19.9132 20.2008 20.1583C17.5273 21.2806 14.4733 21.2806 11.7998 20.1583C11.2191 19.9132 10.8986 19.3285 11.0288 18.7533ZM4 23.0493V19.0001C4.00002 19.3563 4.1858 19.7125 4.55732 19.8855L15.0912 24.8015L15.0912 24.8015C15.6636 25.0662 16.3364 25.0662 16.9088 24.8015L27.4427 19.8855C27.8142 19.7125 28 19.3563 28 19V23.0493C28 24.2312 27.2968 25.2968 26.1817 25.7908L17.311 29.7239C16.4772 30.092 15.5228 30.092 14.689 29.7239L5.81833 25.7908C4.71327 25.2968 4 24.2312 4 23.0493Z" fill="#533566"/>
          <path d="M4.55732 18.1145L15.0912 13.1985C15.6636 12.9338 16.3264 12.9338 16.9088 13.1985L27.4427 18.1145C28.1858 18.4606 28.1858 19.5395 27.4427 19.8855L16.9088 24.8015C16.3364 25.0662 15.6636 25.0662 15.0912 24.8015L4.55732 19.8855C3.81423 19.5395 3.81423 18.4606 4.55732 18.1145ZM11.0288 18.7533C10.8986 19.3285 11.2191 19.9132 11.7998 20.1583C14.4733 21.2806 17.5273 21.2806 20.2008 20.1583C20.7715 19.9132 21.1019 19.3285 20.9718 18.7533C20.4611 16.6032 18.4284 15 15.9953 15C13.5621 15 11.5295 16.6032 11.0288 18.7533Z" fill="#635994"/>
          <path d="M4.13259 18.5C4.22542 18.6602 4.367 18.7969 4.55732 18.8855L15.0912 23.8015C15.6636 24.0661 16.3364 24.0661 16.9088 23.8015L27.4427 18.8855C27.633 18.7969 27.7746 18.6602 27.8674 18.5C28.137 18.9651 27.9954 19.6281 27.4427 19.8855L16.9088 24.8015C16.3364 25.0661 15.6636 25.0661 15.0912 24.8015L4.55732 19.8855C4.00455 19.6281 3.86297 18.9651 4.13259 18.5Z" fill="#6B438B"/>
          <path d="M16 6C16.5523 6 17 6.44772 17 7V15.25C17 15.8023 16.5523 16 16 16C15.4477 16 15 15.8023 15 15.25V7C15 6.44772 15.4477 6 16 6Z" fill="#D3D3D3"/>
          <path d="M20.68 6.67999C20.68 9.26469 18.5847 11.36 16 11.36C13.4153 11.36 11.32 9.26469 11.32 6.67999C11.32 4.0953 13.4153 2 16 2C18.5847 2 20.68 4.0953 20.68 6.67999ZM6.45498 18.76C6.59498 18.12 7.17498 17.63 7.86498 17.63C8.55498 17.63 9.13498 18.12 9.28498 18.76C9.32498 18.93 9.22498 19.11 9.06498 19.18C8.30498 19.52 7.43498 19.52 6.67498 19.18C6.50498 19.11 6.41498 18.93 6.45498 18.76Z" fill="#F8312F"/>
        </g>
      </g>
      <text id="ITEM_2_HEAD" x="0.0" y="-85.0" text-anchor="middle" font-weight="bold" font-size="28" fill="var(--accent-2)" data-bg-id="ITEM_2_BG" fill-opacity="1.0" stroke="none" style="font-size: 30px; font-family: Inter, Segoe UI, Kalam, Roboto, Helvetica, Arial, sans-serif; font-weight: 700; letter-spacing:-0.4px;" data-final-font-size="30">
        <tspan x="0.0" dy="33.25px">Fact: Human Ops</tspan>
      </text>
      <rect id="ITEM_2_HEAD_FRAME" x="-310" y="-85" width="620" height="50" fill="none"/>
      <text id="ITEM_2_BODY" x="0.0" y="-20.0" text-anchor="middle" font-size="22" fill="var(--primary-text)" opacity="0.88" data-bg-id="ITEM_2_BG" style="font-size: 26px; font-family: Inter, Segoe UI, Kalam, Roboto, Helvetica, Arial, sans-serif; font-weight: 400;" data-final-font-size="26">
        <tspan x="0.0" dy="45.82px">Pentagon confirms unauthorised unmanned systems</tspan>
      </text>
      <rect id="ITEM_2_BODY_FRAME" x="-310" y="-20" width="620" height="155" fill="none"/>
    </g>
    <!-- Row 2 - cards at y=400 -->
    <g transform="translate(480.0, 400.0)">
      <rect id="ITEM_3_ACCENT_BG" x="-400" y="-110" width="800" height="245" rx="24" fill="var(--accent-3)" fill-opacity="0.15"/>
      <rect id="ITEM_3_BG" x="-400" y="-110" width="800" height="245" rx="18" fill="var(--panel)" stroke="var(--accent-3)" filter="url(#svg1722e33c-shadow)" stroke-width="3"/>
      <rect x="-388" y="-98" width="776" height="221" rx="16" fill="url(#svg1722e33c-myth-card-sheen)" opacity="0.92"/>
      <circle id="ITEM_3_PAD" cx="-330" cy="-40" r="46" fill="var(--icon-pad-bg)" stroke="var(--background)" stroke-width="2" stroke-opacity="0.65" opacity="0.94"/>
      <circle id="ITEM_3_PAD_INNER" cx="-330" cy="-40" r="35.88" fill="var(--accent-3)" fill-opacity="0.22"/>
      <circle cx="-330" cy="-40" r="34" fill="none" stroke="var(--accent-3)" stroke-width="3" stroke-dasharray="6 4"/>
      <g id="ITEM_3_ICON" transform="translate(-358, -68)" data-icon-size="56" stroke-dasharray="6 4">
        <g transform="translate(-14.524444444444448,-17.84666666666667) scale(3.543703703703704)" vector-effect="non-scaling-stroke" fill="#f1f5f9" fill-opacity="1.0" stroke="none">
          <path fill="#f1f5f9" d="M5 9.15V7c0-1.1.9-2 2-2h10c1.1 0 2 .9 2 2v2.16c-1.16.41-2 1.51-2 2.81V14H7v-2.04c0-1.29-.84-2.4-2-2.81M20 10c-1.1 0-2 .9-2 2v3H6v-3a2 2 0 1 0-4 0v5c0 1.1.9 2 2 2v2h2v-2h12v2h2v-2c1.1 0 2-.9 2-2v-5c0-1.1-.9-2-2-2" vector-effect="non-scaling-stroke" stroke="none"/>
        </g>
      </g>
      <text id="ITEM_3_HEAD" x="0.0" y="-85.0" text-anchor="middle" font-weight="bold" font-size="28" fill="var(--accent-3)" data-bg-id="ITEM_3_BG" style="font-size: 30px; font-family: Inter, Segoe UI, Kalam, Roboto, Helvetica, Arial, sans-serif; font-weight: 700; letter-spacing:-0.4px;" data-final-font-size="30">
        <tspan x="0.0" dy="33.25px">Myth: Single Object</tspan>
      </text>
      <rect id="ITEM_3_HEAD_FRAME" x="-310" y="-85" width="620" height="50" fill="none"/>
      <text id="ITEM_3_BODY" x="0.0" y="-20.0" text-anchor="middle" font-size="22" fill="var(--primary-text)" opacity="0.88" data-bg-id="ITEM_3_BG" style="font-size: 26px; font-family: Inter, Segoe UI, Kalam, Roboto, Helvetica, Arial, sans-serif; font-weight: 400;" data-final-font-size="26">
        <tspan x="0.0" dy="45.82px">Reports describe fluctuating numbers and sizes</tspan>
      </text>
      <rect id="ITEM_3_BODY_FRAME" x="-310" y="-20" width="620" height="155" fill="none"/>
    </g>
    <g transform="translate(1440.0, 400.0)">
      <rect id="ITEM_4_ACCENT_BG" x="-400" y="-110" width="800" height="245" rx="24" fill="var(--accent-4)" fill-opacity="0.15"/>
      <rect id="ITEM_4_BG" x="-400" y="-110" width="800" height="245" rx="18" fill="var(--panel)" stroke="var(--accent-4)" filter="url(#svg1722e33c-shadow)" stroke-width="3"/>
      <rect x="-388" y="-98" width="776" height="221" rx="16" fill="url(#svg1722e33c-myth-card-sheen)" opacity="0.92"/>
      <circle id="ITEM_4_PAD" cx="330" cy="-40" r="46" fill="var(--icon-pad-bg)" stroke="var(--background)" stroke-width="2" stroke-opacity="0.65" opacity="0.94"/>
      <circle id="ITEM_4_PAD_INNER" cx="330" cy="-40" r="35.88" fill="var(--accent-4)" fill-opacity="0.22"/>
      <circle cx="330" cy="-40" r="34" fill="none" stroke="var(--accent-4)" stroke-width="3" stroke-dasharray="6 4"/>
      <g id="ITEM_4_ICON" transform="translate(302, -68)" data-icon-size="56" stroke-dasharray="6 4">
        <g transform="translate(-11.282413793103453,-10.354482758620692) scale(2.47448275862069)" vector-effect="non-scaling-stroke" fill="#f1f5f9" fill-opacity="1.0" stroke="none">
          <path fill="#f1f5f9" d="M25 11H15a1 1 0 0 0-1 1v4a6.005 6.005 0 0 0 5 5.91V28h-3v2h8v-2h-3v-6.09A6.005 6.005 0 0 0 26 16v-4a1 1 0 0 0-1-1m-1 5a4 4 0 0 1-8 0v-3h8Z" vector-effect="non-scaling-stroke" stroke="none"/>
          <path fill="#f1f5f9" d="M15 1h-5a1 1 0 0 0-1 1v7.37A6.09 6.09 0 0 0 6 15v14a1 1 0 0 0 1 1h5v-2H8V15c0-3.187 2.231-4.02 2.316-4.051L11 10.72V3h3v5h2V2a1 1 0 0 0-1-1" vector-effect="non-scaling-stroke" stroke="none"/>
        </g>
      </g>
      <text id="ITEM_4_HEAD" x="0.0" y="-85.0" text-anchor="middle" font-weight="bold" font-size="28" fill="var(--accent-4)" data-bg-id="ITEM_4_BG" style="font-size: 30px; font-family: Inter, Segoe UI, Kalam, Roboto, Helvetica, Arial, sans-serif; font-weight: 700; letter-spacing:-0.4px;" data-final-font-size="30">
        <tspan x="0.0" dy="33.25px">Fact: Variable Swarms</tspan>
      </text>
      <rect id="ITEM_4_HEAD_FRAME" x="-310" y="-85" width="620" height="50" fill="none"/>
      <text id="ITEM_4_BODY" x="0.0" y="-20.0" text-anchor="middle" font-size="22" fill="var(--primary-text)" opacity="0.88" data-bg-id="ITEM_4_BG" style="font-size: 26px; font-family: Inter, Segoe UI, Kalam, Roboto, Helvetica, Arial, sans-serif; font-weight: 400;" data-final-font-size="26">
        <tspan x="0.0" dy="45.82px">Systems ranged from small to roughly 20 feet</tspan>
      </text>
      <rect id="ITEM_4_BODY_FRAME" x="-310" y="-20" width="620" height="155" fill="none"/>
    </g>
    <!-- Row 3 - cards at y=670 -->
    <g transform="translate(480.0, 670.0)">
      <rect id="ITEM_5_ACCENT_BG" x="-400" y="-110" width="800" height="245" rx="24" fill="var(--accent-5)" fill-opacity="0.15"/>
      <rect id="ITEM_5_BG" x="-400" y="-110" width="800" height="245" rx="18" fill="var(--panel)" stroke="var(--accent-5)" filter="url(#svg1722e33c-shadow)" stroke-width="3"/>
      <rect x="-388" y="-98" width="776" height="221" rx="16" fill="url(#svg1722e33c-myth-card-sheen)" opacity="0.92"/>
      <circle id="ITEM_5_PAD" cx="-330" cy="-40" r="46" fill="var(--icon-pad-bg)" stroke="var(--background)" stroke-width="2" stroke-opacity="0.65" opacity="0.94"/>
      <circle id="ITEM_5_PAD_INNER" cx="-330" cy="-40" r="35.88" fill="var(--accent-5)" fill-opacity="0.22"/>
      <circle cx="-330" cy="-40" r="34" fill="none" stroke="var(--accent-5)" stroke-width="3" stroke-dasharray="6 4"/>
      <g id="ITEM_5_ICON" transform="translate(-358, -68)" data-icon-size="56" stroke-dasharray="6 4">
        <g transform="translate(-14.01333333333334,-12.173333333333336) scale(0.15333333333333335)" vector-effect="non-scaling-stroke" fill="#f1f5f9" fill-opacity="1.0" stroke="none">
          <path fill="#f1f5f9" d="M227.47 31.47c-67.048 70.547-83.972 178.936-32.907 267.467c51.07 88.544 153.333 128.083 247.906 105.22l-215-372.688zm232.81 82.155a31.1 31.1 0 0 0-14.81 4.188c-11.303 6.53-17.02 19.035-15.44 31.218l-96.31 29.25l34.842 60.345L442 169.812c9.755 7.504 23.456 8.826 34.78 2.282c14.992-8.663 20.117-27.822 11.47-42.813c-5.945-10.305-16.856-15.948-27.97-15.655zm-311.874 107.5l-26.656 4.688l10.688 60.53l-42.063 39.376l18.688 32.124l58.656-17.813l3.155 4.158L53.53 493.094h78.345l85.344-21.53l52.686 21.53h50.563l-7.064-45.78l.813-.22l-.97-.625l-4.75-30.72c-6.82-2.366-13.532-5.066-20.125-8.03l3.844 24.967l-51-33.437l18.75-6.594a241 241 0 0 1-19.033-13.125l-19.375 6.814l-39.625-26l5.813-7.375l15.156-9.658a242.3 242.3 0 0 1-24.53-35.03c-16-27.74-25.828-57.3-29.97-87.157zm21.906 153.97l29.094 19.06l-61.062 21.5l31.97-40.56zm48.72 31.967l49.343 32.344l-49.78 12.563l-58.845-24.033l59.28-20.875zm-94.813 26.532l5.718 2.312l58.125 23.75L82.75 486.22l41.47-52.626zm170.968 18.312l5.187 33.438l-52.625-21.47l45.813-11.562z" vector-effect="non-scaling-stroke" stroke="none"/>
        </g>
      </g>
      <text id="ITEM_5_HEAD" x="0.0" y="-85.0" text-anchor="middle" font-weight="bold" font-size="28" fill="var(--accent-5)" data-bg-id="ITEM_5_BG" style="font-size: 30px; font-family: Inter, Segoe UI, Kalam, Roboto, Helvetica, Arial, sans-serif; font-weight: 700; letter-spacing:-0.4px;" data-final-font-size="30">
        <tspan x="0.0" dy="33.25px">Myth: Easy Detection</tspan>
      </text>
      <rect id="ITEM_5_HEAD_FRAME" x="-310" y="-85" width="620" height="50" fill="none"/>
      <text id="ITEM_5_BODY" x="0.0" y="-20.0" text-anchor="middle" font-size="22" fill="var(--primary-text)" opacity="0.88" data-bg-id="ITEM_5_BG" style="font-size: 26px; font-family: Inter, Segoe UI, Kalam, Roboto, Helvetica, Arial, sans-serif; font-weight: 400;" data-final-font-size="26">
        <tspan x="0.0" dy="39.84px">Counter-drone tools failed to intercept</tspan>
        <tspan x="0.0" dy="29.90px">some targets</tspan>
      </text>
      <rect id="ITEM_5_BODY_FRAME" x="-310" y="-20" width="620" height="155" fill="none"/>
    </g>
    <g transform="translate(1440.0, 670.0)">
      <rect id="ITEM_6_ACCENT_BG" x="-400" y="-110" width="800" height="245" rx="24" fill="var(--accent-6)" fill-opacity="0.15"/>
      <rect id="ITEM_6_BG" x="-400" y="-110" width="800" height="245" rx="18" fill="var(--panel)" stroke="var(--accent-6)" filter="url(#svg1722e33c-shadow)" stroke-width="3"/>
      <rect x="-388" y="-98" width="776" height="221" rx="16" fill="url(#svg1722e33c-myth-card-sheen)" opacity="0.92"/>
      <circle id="ITEM_6_PAD" cx="330" cy="-40" r="46" fill="var(--icon-pad-bg)" stroke="var(--background)" stroke-width="2" stroke-opacity="0.65" opacity="0.94"/>
      <circle id="ITEM_6_PAD_INNER" cx="330" cy="-40" r="35.88" fill="var(--accent-6)" fill-opacity="0.22"/>
      <circle cx="330" cy="-40" r="34" fill="none" stroke="var(--accent-6)" stroke-width="3" stroke-dasharray="6 4"/>
      <g id="ITEM_6_ICON" transform="translate(302, -68)" data-icon-size="56" stroke-dasharray="6 4">
        <g transform="translate(-10.272000000000002,-6.385000000000003) scale(0.14950000000000002)" vector-effect="non-scaling-stroke" fill="#f1f5f9" fill-opacity="1.0" stroke="none">
          <path fill="#f1f5f9" d="M256 32a120 125 0 0 0-94.666 48.426A160 160 0 0 1 312.8 240a160 160 0 0 1-2.7 28.555A120 125 0 0 0 376 157A120 125 0 0 0 256 32M82.77 325.59c-20.904.844-42.686 5.52-64.06 14.258C41.442 400.102 102.352 459.58 208 400c-11.572-32.98-37.17-55.623-69.445-66.71a11.164 13.258 0 0 0-3.733-.778a11.164 13.258 0 0 0-11.162 13.258a11.164 13.258 0 0 0 11.162 13.257a11.164 13.258 0 0 0 .317-.013c-3.8 27.26-9.967 50.298-15.478 50.662c-12.182.507-29.582-40.02-36.892-84.086zm346.46 0c-7.31 44.066-24.71 84.593-36.892 84.086c-5.727-.378-12.157-25.236-15.908-53.873a13.258 21.127 82.128 0 0 11.097.418a13.258 21.127 82.128 0 0 19.112-16.027a13.258 21.127 82.128 0 0-22.745-10.238a13.258 21.127 82.128 0 0-10.4 3.318c-32.3 11.08-57.916 33.73-69.495 66.727c105.647 59.58 166.557.102 189.29-60.152c-21.374-8.74-43.156-13.414-64.06-14.258z" vector-effect="non-scaling-stroke" stroke="none"/>
        </g>
      </g>
      <text id="ITEM_6_HEAD" x="0.0" y="-85.0" text-anchor="middle" font-weight="bold" font-size="28" fill="var(--accent-6)" data-bg-id="ITEM_6_BG" style="font-size: 30px; font-family: Inter, Segoe UI, Kalam, Roboto, Helvetica, Arial, sans-serif; font-weight: 700; letter-spacing:-0.4px;" data-final-font-size="30">
        <tspan x="0.0" dy="33.25px">Fact: Detection Limits</tspan>
      </text>
      <rect id="ITEM_6_HEAD_FRAME" x="-310" y="-85" width="620" height="50" fill="none"/>
      <text id="ITEM_6_BODY" x="0.0" y="-20.0" text-anchor="middle" font-size="22" fill="var(--primary-text)" opacity="0.88" data-bg-id="ITEM_6_BG" style="font-size: 26px; font-family: Inter, Segoe UI, Kalam, Roboto, Helvetica, Arial, sans-serif; font-weight: 400;" data-final-font-size="26">
        <tspan x="0.0" dy="45.82px">Night conditions and clutter obscure tracking</tspan>
      </text>
      <rect id="ITEM_6_BODY_FRAME" x="-310" y="-20" width="620" height="155" fill="none"/>
    </g>
  </g>
</svg>
