<?xml version='1.0' encoding='utf-8'?>
<svg xmlns="http://www.w3.org/2000/svg" width="1920" height="1080" viewBox="0 0 1920 1080" data-theme="dark">
  <style>
        @font-face {
            font-family: 'Inter';
            src: url('assets/fonts/Inter-Regular.ttf') format('truetype');
            font-weight: 400;
            font-style: normal;
            font-display: swap;
        }
        @font-face {
            font-family: 'Inter';
            src: url('assets/fonts/Inter-Bold.ttf') format('truetype');
            font-weight: 600;
            font-style: normal;
            font-display: swap;
        }
        @font-face {
            font-family: 'Inter';
            src: url('assets/fonts/Inter-Bold.ttf') format('truetype');
            font-weight: 800;
            font-style: normal;
            font-display: swap;
        }
        
:root {
    --background: #0f172a;
    --panel: #1e293b;
    --primary-text: #f1f5f9;
    --muted-text: #94a3b8;
    --inverse-text: #0f172a;
    --border: #334155;
    --shadow-color: #000000;
    --icon-pad-bg: #1e293b;
    --art-glow: #7dd3fc;
    --art-glow-opacity: 0.18;
    --art-sheen: #ffffff;
    --art-sheen-opacity: 0.18;
    --art-shadow: #000000;
    --art-shadow-opacity: 0.28;
    --art-muted-line: #64748b;
    --art-panel-tint: #1e293b;
    --font-family: 'Inter', 'Segoe UI', 'Kalam', Roboto, Helvetica, Arial, sans-serif;
    --radius-xl: 16px;
    --font-family-headline: 'Inter', 'Segoe UI', 'Kalam', Roboto, Helvetica, Arial, sans-serif;
    --font-family-body: 'Inter', 'Segoe UI', 'Kalam', Roboto, Helvetica, Arial, sans-serif;
    --font-heading: 'Inter', 'Segoe UI', 'Kalam', Roboto, Helvetica, Arial, sans-serif;
    --font-body: 'Inter', 'Segoe UI', 'Kalam', Roboto, Helvetica, Arial, sans-serif;
    --font-size-h1: 56px;
    --font-size-h2: 40px;
    --font-size-h3: 28px;
    --font-size-body: 24px;
    --font-size-caption: 18px;
    --secondary-text: var(--muted-text);
    --panel-border: var(--border);
    --font-weight-normal: 400;
    --font-weight-medium: 500;
    --font-weight-semibold: 600;
    --font-weight-bold: 700;
    --spacing-gutter-pct: 0.07;
    --spacing-top-pct: 0.15;
    --spacing-bottom-pct: 0.07;
    --spacing-title-y-pct: 0.055;
    --accent-1: #a5b4fc;
    --accent-2: #34d399;
    --accent-3: #f472b6;
    --accent-4: #fbbf24;
    --accent-5: #38bdf8;
    --accent-6: #c084fc;
    --accent-7: #f87171;
    --accent-8: #2dd4bf;
    --accent-9: #fb923c;
    --accent-10: #e879f9;
}
:root[data-theme="dark"] {
    --background: #0f172a;
    --panel: #1e293b;
    --primary-text: #f1f5f9;
    --muted-text: #94a3b8;
    --inverse-text: #0f172a;
    --border: #334155;
    --shadow-color: #000000;
    --icon-pad-bg: #1e293b;
    --art-glow: #7dd3fc;
    --art-glow-opacity: 0.18;
    --art-sheen: #ffffff;
    --art-sheen-opacity: 0.18;
    --art-shadow: #000000;
    --art-shadow-opacity: 0.28;
    --art-muted-line: #64748b;
    --art-panel-tint: #1e293b;
    --accent-1: #a5b4fc;
    --accent-2: #34d399;
    --accent-3: #f472b6;
    --accent-4: #fbbf24;
    --accent-5: #38bdf8;
    --accent-6: #c084fc;
    --accent-7: #f87171;
    --accent-8: #2dd4bf;
    --accent-9: #fb923c;
    --accent-10: #e879f9;
}
:root[data-theme="light"] {
    --background: #f8fafc;
    --panel: #ffffff;
    --primary-text: #0f172a;
    --muted-text: #64748b;
    --inverse-text: #ffffff;
    --border: #e2e8f0;
    --shadow-color: #000000;
    --icon-pad-bg: #1e293b;
    --art-glow: #0891b2;
    --art-glow-opacity: 0.10;
    --art-sheen: #ffffff;
    --art-sheen-opacity: 0.34;
    --art-shadow: #0f172a;
    --art-shadow-opacity: 0.14;
    --art-muted-line: #94a3b8;
    --art-panel-tint: #f1f5f9;
    --accent-1: #4f46e5;
    --accent-2: #059669;
    --accent-3: #db2777;
    --accent-4: #d97706;
    --accent-5: #0284c7;
    --accent-6: #7c3aed;
    --accent-7: #dc2626;
    --accent-8: #0d9488;
    --accent-9: #ea580c;
    --accent-10: #c026d3;
}</style>
  <rect x="0" y="0" width="1.92E+3" height="1.08E+3" fill="#252a34" stroke="none" id="programmatic_background"/>
  <line id="HEADER_DECOR" x1="960.0" x2="1080.0" y1="135.0" y2="135.0" stroke="var(--accent-1)" stroke-width="6" stroke-linecap="round"/>
  <defs>
    <pattern id="svg9946f968-napkin-hatch" patternUnits="userSpaceOnUse" width="12" height="12">
      <path d="M -3 12 L 12 -3 M 0 15 L 15 0" fill="none" stroke="var(--primary-text)" stroke-width="1" stroke-opacity="0.05"/>
    </pattern>
    <radialGradient id="svg9946f968-universal-edge-vignette" cx="50%" cy="50%" r="72%">
      <stop offset="0%" stop-color="var(--background)" stop-opacity="0"/>
      <stop offset="72%" stop-color="var(--background)" stop-opacity="0.12"/>
      <stop offset="100%" stop-color="var(--primary-text)" stop-opacity="0.08"/>
    </radialGradient>
    <linearGradient id="svg9946f968-universal-surface-sheen" x1="0%" y1="0%" x2="100%" y2="100%">
      <stop offset="0%" stop-color="var(--art-sheen)" stop-opacity="var(--art-sheen-opacity)"/>
      <stop offset="46%" stop-color="var(--art-sheen)" stop-opacity="0.035"/>
      <stop offset="100%" stop-color="var(--art-panel-tint)" stop-opacity="0.14"/>
    </linearGradient>
    <radialGradient id="svg9946f968-universal-icon-aura" cx="50%" cy="42%" r="64%">
      <stop offset="0%" stop-color="var(--art-glow)" stop-opacity="var(--art-glow-opacity)"/>
      <stop offset="100%" stop-color="var(--background)" stop-opacity="0"/>
    </radialGradient>
    <filter id="svg9946f968-text-glow" x="-20%" y="-20%" width="140%" height="140%">
      <feDropShadow dx="0" dy="0" stdDeviation="2" flood-color="#000000" flood-opacity="0.4"/>
    </filter>
    <filter id="svg9946f968-shadow" x="-30%" y="-30%" width="160%" height="160%">
      <feDropShadow dx="0" dy="2" stdDeviation="3" flood-color="#000000" flood-opacity="0.08"/>
      <feDropShadow dx="0" dy="6" stdDeviation="10" flood-color="#000000" flood-opacity="0.12"/>
    </filter>
    <marker id="svg9946f968-arrowhead" markerWidth="10" markerHeight="7" refX="9" refY="3.5" orient="auto" markerUnits="strokeWidth">
      <polygon points="0 0, 10 3.5, 0 7" fill="var(--muted-text)" opacity="0.6"/>
    </marker>
  </defs>
  <rect width="100%" height="100%" fill="var(--background)" id="CANVAS_BG"/>
  <rect width="100%" height="100%" fill="url(#svg9946f968-napkin-hatch)"/>
  <rect id="UNIVERSAL_EDGE_VIGNETTE" width="100%" height="100%" fill="url(#svg9946f968-universal-edge-vignette)" opacity="0.62"/>
  <text id="TITLE" x="960.0" y="59" text-anchor="middle" font-weight="700" font-size="63" fill="#f1f5f9" style="font-size: 60px; font-family: Inter, Segoe UI, Kalam, Roboto, Helvetica, Arial, sans-serif; font-weight: 700; letter-spacing:-1.2px;" data-final-font-size="60">
    <tspan x="960.0" dy="68.00px">Legend Formation</tspan>
  </text>
  <rect id="TITLE_FRAME" x="134" y="59" width="1652" height="103" fill="none"/>
  <g id="DIAGRAM_SCALER" transform="translate(50.3, 35.1) scale(0.95)">
    <g transform="translate(345.0, 360.0)">
      <rect id="ITEM_1_BG" x="-270" y="-135" width="540" height="270" rx="22" fill="var(--accent-7)" stroke="var(--accent-1)" stroke-width="2" fill-opacity="0.4"/>
      <circle cx="-180" cy="0" r="50" fill="var(--accent-1)" opacity="0.15"/>
      <g transform="translate(-30.0, -15.0)">
        <text id="ITEM_1_HEAD" text-anchor="start" font-weight="bold" font-size="36" fill="var(--primary-text)" x="-100.0" y="-84.0" data-bg-id="ITEM_1_BG" fill-opacity="1.0" stroke="none" style="font-size: 30px; font-family: Inter, Segoe UI, Kalam, Roboto, Helvetica, Arial, sans-serif; font-weight: 700; letter-spacing:-0.4px;" data-final-font-size="30">
          <tspan x="-100.0" dy="36.57px">First Sight</tspan>
        </text>
        <rect id="ITEM_1_HEAD_FRAME" x="-100" y="-84" width="380" height="48" fill="none"/>
        <text id="ITEM_1_BODY" text-anchor="start" font-size="24" fill="var(--primary-text)" x="-100.0" y="-8.0" data-bg-id="ITEM_1_BG" style="font-size: 24px; font-family: Inter, Segoe UI, Kalam, Roboto, Helvetica, Arial, sans-serif; font-weight: 400;" data-final-font-size="24">
          <tspan x="-100.0" dy="40.73px">Two couples flee woods</tspan>
          <tspan x="-100.0" dy="27.60px">near old TNT site</tspan>
        </text>
        <rect id="ITEM_1_BODY_FRAME" x="-100" y="-8" width="430" height="138" fill="none"/>
        <rect id="ITEM_1_TEXT_FRAME" x="-100" y="-4" width="380" height="128" fill="none"/>
      </g>
      <circle id="ITEM_1_PAD" cx="-186" cy="0.0" r="48" fill="var(--icon-pad-bg)" stroke="var(--primary-text)" opacity="0.9" fill-opacity="0.9" stroke-width="2"/>
      <circle id="ITEM_1_PAD_INNER" cx="-186" cy="0.0" r="37.44" fill="var(--accent-7)" fill-opacity="0.22"/>
      <circle cx="-186" cy="0.0" r="38" fill="none" stroke="var(--accent-1)" stroke-width="3" stroke-dasharray="6 4"/>
      <g id="ITEM_1_ICON" transform="translate(-224, -38)" data-icon-size="76" stroke-dasharray="6 4">
        <g transform="translate(-4.071428571428575,-5.428571428571429) scale(2.7142857142857144)" vector-effect="non-scaling-stroke" fill="#f1f5f9" fill-opacity="1.0" stroke="none">
          <path fill="#f1f5f9" d="M10 12h2v2h-2zm-4 0h2v2H6zm-4 0h2v2H2zm24 18h-2v-3h-4a5.006 5.006 0 0 1-5-5v-1.28l-2.316-.771a1 1 0 0 1-.541-1.463L15 13.723V11a9.01 9.01 0 0 1 9-9h5v2h-5a7.01 7.01 0 0 0-7 7v3a1 1 0 0 1-.143.514L14.5 18.446l1.817.605A1 1 0 0 1 17 20v2a3.003 3.003 0 0 0 3 3h5a1 1 0 0 1 1 1z" vector-effect="non-scaling-stroke" stroke="none"/>
          <path fill="#f1f5f9" d="M19 12h4v2h-4z" vector-effect="non-scaling-stroke" stroke="none"/>
        </g>
      </g>
    </g>
    <g transform="translate(960.0, 360.0)">
      <rect id="ITEM_2_BG" x="-270" y="-135" width="540" height="270" rx="22" fill="var(--accent-8)" stroke="var(--accent-2)" stroke-width="2" fill-opacity="0.4"/>
      <circle cx="-180" cy="0" r="50" fill="var(--accent-1)" opacity="0.15"/>
      <g transform="translate(-30.0, -15.0)">
        <text id="ITEM_2_HEAD" text-anchor="start" font-weight="bold" font-size="36" fill="var(--primary-text)" x="-100.0" y="-84.0" data-bg-id="ITEM_2_BG" fill-opacity="1.0" stroke="none" style="font-size: 30px; font-family: Inter, Segoe UI, Kalam, Roboto, Helvetica, Arial, sans-serif; font-weight: 700; letter-spacing:-0.4px;" data-final-font-size="30">
          <tspan x="-100.0" dy="36.57px">Local Focus</tspan>
        </text>
        <rect id="ITEM_2_HEAD_FRAME" x="-100" y="-84" width="380" height="48" fill="none"/>
        <text id="ITEM_2_BODY" text-anchor="start" font-size="24" fill="var(--primary-text)" x="-100.0" y="-8.0" data-bg-id="ITEM_2_BG" style="font-size: 24px; font-family: Inter, Segoe UI, Kalam, Roboto, Helvetica, Arial, sans-serif; font-weight: 400;" data-final-font-size="24">
          <tspan x="-100.0" dy="40.73px">Residents cluster reports around</tspan>
          <tspan x="-100.0" dy="27.60px">specific ruins</tspan>
        </text>
        <rect id="ITEM_2_BODY_FRAME" x="-100" y="-8" width="430" height="138" fill="none"/>
        <rect id="ITEM_2_TEXT_FRAME" x="-100" y="-4" width="380" height="128" fill="none"/>
      </g>
      <circle id="ITEM_2_PAD" cx="-186" cy="0.0" r="48" fill="var(--icon-pad-bg)" stroke="var(--primary-text)" opacity="0.9" fill-opacity="0.9" stroke-width="2"/>
      <circle id="ITEM_2_PAD_INNER" cx="-186" cy="0.0" r="37.44" fill="var(--accent-8)" fill-opacity="0.22"/>
      <circle cx="-186" cy="0.0" r="38" fill="none" stroke="var(--accent-2)" stroke-width="3" stroke-dasharray="6 4"/>
      <g id="ITEM_2_ICON" transform="translate(-224, -38)" data-icon-size="76" stroke-dasharray="6 4">
        <g transform="translate(-7.037037037037036,-7.037037037037036) scale(3.753086419753086)" vector-effect="non-scaling-stroke" stroke-width="2.62" stroke-linecap="round" stroke-linejoin="round" stroke-opacity="1.0">
          <path d="M3 3v16a2 2 0 0 0 2 2h16" vector-effect="non-scaling-stroke" fill="none" stroke="#f1f5f9"/>
          <path d="M7 11.207a.5.5 0 0 1 .146-.353l2-2a.5.5 0 0 1 .708 0l3.292 3.292a.5.5 0 0 0 .708 0l4.292-4.292a.5.5 0 0 1 .854.353V16a1 1 0 0 1-1 1H8a1 1 0 0 1-1-1z" vector-effect="non-scaling-stroke" fill="none" stroke="#f1f5f9"/>
        </g>
      </g>
    </g>
    <g transform="translate(1575.0, 360.0)">
      <rect id="ITEM_3_BG" x="-270" y="-135" width="540" height="270" rx="22" fill="var(--accent-9)" stroke="var(--accent-3)" stroke-width="2" fill-opacity="0.4"/>
      <circle cx="-180" cy="0" r="50" fill="var(--accent-1)" opacity="0.15"/>
      <g transform="translate(-30.0, -15.0)">
        <text id="ITEM_3_HEAD" text-anchor="start" font-weight="bold" font-size="36" fill="var(--primary-text)" x="-100.0" y="-84.0" data-bg-id="ITEM_3_BG" fill-opacity="1.0" stroke="none" style="font-size: 30px; font-family: Inter, Segoe UI, Kalam, Roboto, Helvetica, Arial, sans-serif; font-weight: 700; letter-spacing:-0.4px;" data-final-font-size="30">
          <tspan x="-100.0" dy="36.57px">Story Merge</tspan>
        </text>
        <rect id="ITEM_3_HEAD_FRAME" x="-100" y="-84" width="380" height="48" fill="none"/>
        <text id="ITEM_3_BODY" text-anchor="start" font-size="24" fill="var(--primary-text)" x="-100.0" y="-8.0" data-bg-id="ITEM_3_BG" style="font-size: 24px; font-family: Inter, Segoe UI, Kalam, Roboto, Helvetica, Arial, sans-serif; font-weight: 400;" data-final-font-size="24">
          <tspan x="-100.0" dy="40.73px">Different experiences merge</tspan>
          <tspan x="-100.0" dy="27.60px">into single legend</tspan>
        </text>
        <rect id="ITEM_3_BODY_FRAME" x="-100" y="-8" width="430" height="138" fill="none"/>
        <rect id="ITEM_3_TEXT_FRAME" x="-100" y="-4" width="380" height="128" fill="none"/>
      </g>
      <circle id="ITEM_3_PAD" cx="-186" cy="0.0" r="48" fill="var(--icon-pad-bg)" stroke="var(--primary-text)" opacity="0.9" fill-opacity="0.9" stroke-width="2"/>
      <circle id="ITEM_3_PAD_INNER" cx="-186" cy="0.0" r="37.44" fill="var(--accent-9)" fill-opacity="0.22"/>
      <circle cx="-186" cy="0.0" r="38" fill="none" stroke="var(--accent-3)" stroke-width="3" stroke-dasharray="6 4"/>
      <g id="ITEM_3_ICON" transform="translate(-224, -38)" data-icon-size="76" stroke-dasharray="6 4">
        <g transform="translate(-5.428571428571429,-5.428571428571429) scale(2.7142857142857144)">
          <path d="M14.9998 5.5L16.6147 4.98752L16.6662 4.93638C17.1092 4.49106 17.1092 3.78065 16.6768 3.33532C16.2443 2.88999 15.5272 2.89002 15.0842 3.32474L14.0215 4.38018L14.9998 5.5ZM28.659 17.9364L27.9804 18.6117L26.9998 17.5L27.4424 16.0851C27.8529 15.9163 28.3427 15.9981 28.6695 16.3353C29.1116 16.77 29.1116 17.4911 28.659 17.9364Z" fill="#9B9B9B"/>
          <path d="M14.1209 28.8751L12.7723 23.3207C14.5105 22.308 16.1288 21.1049 17.5973 19.7113L21.0251 16.4565L24.4676 14.906L26.411 11.3426L28.7058 9.16379C30.394 7.5596 30.434 4.88261 28.8057 3.2283C27.1674 1.57399 24.5001 1.59405 22.8818 3.26841L20.3602 5.89209L16.2607 7.61854L15.2234 11.2368L12.2628 14.3172C10.8643 15.781 9.63554 17.3952 8.6166 19.1297L3.09231 17.7261C2.78264 17.6459 2.46297 17.7361 2.2332 17.9567C1.79366 18.3978 2.03342 18.9493 2.47296 19.4105L12.4227 29.4968C12.9121 30.0181 13.4316 30.1886 13.8712 29.7474C14.1109 29.5068 14.2008 29.186 14.1209 28.8751Z" fill="#CDC4D6"/>
          <path d="M27.7929 5.76988L26.2533 4.21808C25.9708 3.92892 25.503 3.92894 25.2205 4.20846C24.9282 4.48797 24.9282 4.95062 25.2107 5.23013L26.7503 6.78191C27.0329 7.07106 27.5006 7.07107 27.7831 6.79156C28.0657 6.51204 28.0755 6.05904 27.7929 5.76988Z" fill="#00A6ED"/>
          <path d="M15.2156 11.2449L20.3817 5.8697L8.34626 3.051C7.88626 2.941 7.39625 3.011 6.97625 3.241C5.67625 3.971 5.67625 5.83101 6.96625 6.56101L15.2156 11.2449ZM26.4293 11.3253L21.0085 16.4723L25.46 24.7C26.16 26.01 28.03 26.04 28.78 24.76C29.02 24.35 29.1 23.87 29 23.4L26.4293 11.3253ZM8.15643 22.3151C8.57618 21.8934 9.26303 21.8934 9.68277 22.3246C10.1121 22.7463 10.1025 23.4363 9.67323 23.8579L6.83996 26.6849C6.42022 27.1066 5.73337 27.1066 5.31362 26.6754C4.89388 26.2537 4.89388 25.5637 5.32317 25.1421L8.15643 22.3151Z" fill="#0084CE"/>
        </g>
      </g>
    </g>
    <g transform="translate(652.5, 720.0)">
      <rect id="ITEM_4_BG" x="-270" y="-135" width="540" height="270" rx="22" fill="var(--accent-10)" stroke="var(--accent-4)" stroke-width="2" fill-opacity="0.4"/>
      <circle cx="-180" cy="0" r="50" fill="var(--accent-1)" opacity="0.15"/>
      <g transform="translate(-30.0, -15.0)">
        <text id="ITEM_4_HEAD" text-anchor="start" font-weight="bold" font-size="36" fill="var(--primary-text)" x="-100.0" y="-84.0" data-bg-id="ITEM_4_BG" fill-opacity="1.0" stroke="none" style="font-size: 30px; font-family: Inter, Segoe UI, Kalam, Roboto, Helvetica, Arial, sans-serif; font-weight: 700; letter-spacing:-0.4px;" data-final-font-size="30">
          <tspan x="-100.0" dy="36.57px">Regional Fame</tspan>
        </text>
        <rect id="ITEM_4_HEAD_FRAME" x="-100" y="-84" width="380" height="48" fill="none"/>
        <text id="ITEM_4_BODY" text-anchor="start" font-size="24" fill="var(--primary-text)" x="-100.0" y="-8.0" data-bg-id="ITEM_4_BG" style="font-size: 24px; font-family: Inter, Segoe UI, Kalam, Roboto, Helvetica, Arial, sans-serif; font-weight: 400;" data-final-font-size="24">
          <tspan x="-100.0" dy="40.73px">Site provides memorable geography</tspan>
          <tspan x="-100.0" dy="27.60px">for mystery</tspan>
        </text>
        <rect id="ITEM_4_BODY_FRAME" x="-100" y="-8" width="430" height="138" fill="none"/>
        <rect id="ITEM_4_TEXT_FRAME" x="-100" y="-4" width="380" height="128" fill="none"/>
      </g>
      <circle id="ITEM_4_PAD" cx="-186" cy="0.0" r="48" fill="var(--icon-pad-bg)" stroke="var(--primary-text)" opacity="0.9" fill-opacity="0.9" stroke-width="2"/>
      <circle id="ITEM_4_PAD_INNER" cx="-186" cy="0.0" r="37.44" fill="var(--accent-10)" fill-opacity="0.22"/>
      <circle cx="-186" cy="0.0" r="38" fill="none" stroke="var(--accent-4)" stroke-width="3" stroke-dasharray="6 4"/>
      <g id="ITEM_4_ICON" transform="translate(-224, -38)" data-icon-size="76" stroke-dasharray="6 4">
        <g transform="translate(-1.8688524590163935,1.2459016393442641) scale(3.3224043715846996)" vector-effect="non-scaling-stroke" fill="#f1f5f9" fill-opacity="1.0" stroke="none">
          <path fill="#f1f5f9" d="M18.5 1.15c-.53 0-1.04.19-1.43.58l-5.81 5.82l5.65 5.65l5.82-5.81c.77-.78.77-2.04 0-2.83l-2.84-2.83c-.39-.39-.89-.58-1.39-.58M10.3 8.5l-5.96 5.96c-.78.78-.78 2.04.02 2.85C3.14 18.54 1.9 19.77.67 21h5.66l.86-.86c.78.76 2.03.75 2.81-.02l5.95-5.96" vector-effect="non-scaling-stroke" stroke="none"/>
        </g>
      </g>
    </g>
    <g transform="translate(1267.5, 720.0)">
      <rect id="ITEM_5_BG" x="-270" y="-135" width="540" height="270" rx="22" fill="var(--accent-1)" stroke="var(--accent-5)" stroke-width="2" fill-opacity="0.4"/>
      <circle cx="-180" cy="0" r="50" fill="var(--accent-1)" opacity="0.15"/>
      <g transform="translate(-30.0, -15.0)">
        <text id="ITEM_5_HEAD" text-anchor="start" font-weight="bold" font-size="36" fill="var(--primary-text)" x="-100.0" y="-84.0" data-bg-id="ITEM_5_BG" fill-opacity="1.0" stroke="none" style="font-size: 30px; font-family: Inter, Segoe UI, Kalam, Roboto, Helvetica, Arial, sans-serif; font-weight: 700; letter-spacing:-0.4px;" data-final-font-size="30">
          <tspan x="-100.0" dy="36.57px">Lasting Myth</tspan>
        </text>
        <rect id="ITEM_5_HEAD_FRAME" x="-100" y="-84" width="380" height="48" fill="none"/>
        <text id="ITEM_5_BODY" text-anchor="start" font-size="24" fill="var(--primary-text)" x="-100.0" y="-8.0" data-bg-id="ITEM_5_BG" style="font-size: 24px; font-family: Inter, Segoe UI, Kalam, Roboto, Helvetica, Arial, sans-serif; font-weight: 400;" data-final-font-size="24">
          <tspan x="-100.0" dy="40.73px">Environment allows fear</tspan>
          <tspan x="-100.0" dy="27.60px">and expectation to grow</tspan>
        </text>
        <rect id="ITEM_5_BODY_FRAME" x="-100" y="-8" width="430" height="138" fill="none"/>
        <rect id="ITEM_5_TEXT_FRAME" x="-100" y="-4" width="380" height="128" fill="none"/>
      </g>
      <circle id="ITEM_5_PAD" cx="-186" cy="0.0" r="48" fill="var(--icon-pad-bg)" stroke="var(--primary-text)" opacity="0.9" fill-opacity="0.9" stroke-width="2"/>
      <circle id="ITEM_5_PAD_INNER" cx="-186" cy="0.0" r="37.44" fill="var(--accent-1)" fill-opacity="0.22"/>
      <circle cx="-186" cy="0.0" r="38" fill="none" stroke="var(--accent-5)" stroke-width="3" stroke-dasharray="6 4"/>
      <g id="ITEM_5_ICON" transform="translate(-224, -38)" data-icon-size="76" stroke-dasharray="6 4">
        <g transform="translate(-7.037037037037038,-7.037037037037036) scale(3.753086419753086)" vector-effect="non-scaling-stroke" stroke-width="2.62" stroke-linecap="round" stroke-linejoin="round" stroke-opacity="1.0">
          <path d="M14 9.536V7a4 4 0 0 1 4-4h1.5a.5.5 0 0 1 .5.5V5a4 4 0 0 1-4 4 4 4 0 0 0-4 4c0 2 1 3 1 5a5 5 0 0 1-1 3" vector-effect="non-scaling-stroke" fill="none" stroke="#f1f5f9"/>
          <path d="M4 9a5 5 0 0 1 8 4 5 5 0 0 1-8-4" vector-effect="non-scaling-stroke" fill="none" stroke="#f1f5f9"/>
          <path d="M5 21h14" vector-effect="non-scaling-stroke" fill="none" stroke="#f1f5f9"/>
        </g>
      </g>
    </g>
  </g>
</svg>
